<svg xmlns="http://www.w3.org/2000/svg" xmlns:xlink="http://www.w3.org/1999/xlink" width="768" zoomAndPan="magnify" viewBox="0 0 576 428.250001" height="571" preserveAspectRatio="xMidYMid meet" version="1.0"><defs><clipPath id="78239cefa7"><path d="M 91 124.488281 L 427 124.488281 L 427 132 L 91 132 Z M 91 124.488281 " clip-rule="nonzero"/></clipPath><clipPath id="eccb88efc1"><path d="M 93 124.488281 L 196 124.488281 L 196 227 L 93 227 Z M 93 124.488281 " clip-rule="nonzero"/></clipPath><clipPath id="759891c6b7"><path d="M 414 124.488281 L 521 124.488281 L 521 227 L 414 227 Z M 414 124.488281 " clip-rule="nonzero"/></clipPath><clipPath id="06aa744ffe"><path d="M 437 390 L 483 390 L 483 426.960938 L 437 426.960938 Z M 437 390 " clip-rule="nonzero"/></clipPath><clipPath id="b2ab44df7a"><path d="M 441.574219 390.773438 L 482.515625 390.773438 L 482.515625 426.691406 L 441.574219 426.691406 Z M 441.574219 390.773438 " clip-rule="nonzero"/></clipPath><clipPath id="3580d736e4"><path d="M 478.195312 426.691406 L 441.574219 426.691406 C 466.601562 425.304688 482.515625 390.773438 482.515625 390.773438 L 481.441406 399.679688 L 479.777344 413.503906 L 478.195312 426.691406 " clip-rule="nonzero"/></clipPath><clipPath id="526937598d"><path d="M 478.195312 426.691406 L 441.574219 426.691406 C 466.601562 425.304688 482.515625 390.773438 482.515625 390.773438 L 481.441406 399.679688 L 479.777344 413.503906 L 478.195312 426.691406 " clip-rule="nonzero"/></clipPath><radialGradient gradientTransform="matrix(1.000193, 0, 0, 0.999807, 462.041848, 408.734113)" gradientUnits="userSpaceOnUse" r="19.256295" cx="0" id="77c4f42ac2" cy="0" fx="0" fy="0"><stop stop-opacity="1" stop-color="rgb(34.899902%, 20.799255%, 11.799622%)" offset="0"/><stop stop-opacity="1" stop-color="rgb(34.899902%, 20.799255%, 11.799622%)" offset="1"/></radialGradient><clipPath id="4b1ccd3b03"><path d="M 535.601562 338 L 574.515625 338 L 574.515625 396 L 535.601562 396 Z M 535.601562 338 " clip-rule="nonzero"/></clipPath><clipPath id="8dfdbe4250"><path d="M 523 390 L 570 390 L 570 426.960938 L 523 426.960938 Z M 523 390 " clip-rule="nonzero"/></clipPath><clipPath id="4b640d37f4"><path d="M 528.167969 390.773438 L 569.109375 390.773438 L 569.109375 426.691406 L 528.167969 426.691406 Z M 528.167969 390.773438 " clip-rule="nonzero"/></clipPath><clipPath id="8c77e1829f"><path d="M 564.789062 426.691406 L 528.167969 426.691406 C 553.195312 425.304688 569.109375 390.773438 569.109375 390.773438 L 564.789062 426.691406 " clip-rule="nonzero"/></clipPath><clipPath id="977dc16647"><path d="M 564.789062 426.691406 L 528.167969 426.691406 C 553.195312 425.304688 569.109375 390.773438 569.109375 390.773438 L 564.789062 426.691406 " clip-rule="nonzero"/></clipPath><radialGradient gradientTransform="matrix(1.000193, 0, 0, 0.999807, 548.639549, 408.734113)" gradientUnits="userSpaceOnUse" r="19.256295" cx="0" id="ab3f418c6f" cy="0" fx="0" fy="0"><stop stop-opacity="1" stop-color="rgb(34.899902%, 20.799255%, 11.799622%)" offset="0"/><stop stop-opacity="1" stop-color="rgb(34.899902%, 20.799255%, 11.799622%)" offset="1"/></radialGradient><clipPath id="6da2b9ac02"><path d="M 353 391 L 399 391 L 399 426.921875 L 353 426.921875 Z M 353 391 " clip-rule="nonzero"/></clipPath><clipPath id="bb032c92bc"><path d="M 357.4375 391 L 398.378906 391 L 398.378906 426.921875 L 357.4375 426.921875 Z M 357.4375 391 " clip-rule="nonzero"/></clipPath><clipPath id="ec4c263c8a"><path d="M 394.058594 426.921875 L 357.4375 426.921875 C 382.464844 425.535156 398.378906 391 398.378906 391 L 397.871094 395.226562 L 397.335938 399.679688 L 395.671875 413.503906 L 394.058594 426.921875 " clip-rule="nonzero"/></clipPath><clipPath id="1496a2dd71"><path d="M 394.058594 426.921875 L 357.4375 426.921875 C 382.464844 425.535156 398.378906 391 398.378906 391 L 397.871094 395.226562 L 397.335938 399.679688 L 395.671875 413.503906 L 394.058594 426.921875 " clip-rule="nonzero"/></clipPath><radialGradient gradientTransform="matrix(1.000193, 0, 0, 0.999807, 377.906965, 408.960767)" gradientUnits="userSpaceOnUse" r="19.256295" cx="0" id="581dd896de" cy="0" fx="0" fy="0"><stop stop-opacity="1" stop-color="rgb(34.899902%, 20.799255%, 11.799622%)" offset="0"/><stop stop-opacity="1" stop-color="rgb(34.899902%, 20.799255%, 11.799622%)" offset="1"/></radialGradient><clipPath id="e1b8f47497"><path d="M 489 11 L 575.382812 11 L 575.382812 23 L 489 23 Z M 489 11 " clip-rule="nonzero"/></clipPath><clipPath id="bc07aae550"><path d="M 427.140625 0 L 485 0 L 485 35 L 427.140625 35 Z M 427.140625 0 " clip-rule="nonzero"/></clipPath><clipPath id="3d8c135f0a"><path d="M 529 51 L 575.382812 51 L 575.382812 63 L 529 63 Z M 529 51 " clip-rule="nonzero"/></clipPath><clipPath id="4acf5788c0"><path d="M 427.140625 40 L 525 40 L 525 75 L 427.140625 75 Z M 427.140625 40 " clip-rule="nonzero"/></clipPath><clipPath id="bc68c1f406"><path d="M 506 91 L 575.382812 91 L 575.382812 103 L 506 103 Z M 506 91 " clip-rule="nonzero"/></clipPath><clipPath id="36c6cca4c2"><path d="M 427.140625 80 L 502 80 L 502 115 L 427.140625 115 Z M 427.140625 80 " clip-rule="nonzero"/></clipPath></defs><path fill="#cceeea" d="M 520.855469 221.515625 L 520.855469 413.503906 L 4.839844 413.503906 L 4.839844 218.148438 L 93.773438 129.25 L 96.96875 126.054688 L 425.359375 126.054688 L 520.855469 221.515625 " fill-opacity="1" fill-rule="nonzero"/><path fill="#d0cdc3" d="M 93.984375 413.503906 L 93.984375 221.410156 L 100.71875 221.410156 L 100.71875 413.503906 L 93.984375 413.503906 " fill-opacity="1" fill-rule="nonzero"/><path fill="#d0cdc3" d="M 206.820312 413.503906 L 213.550781 413.503906 L 213.550781 221.410156 L 206.820312 221.410156 Z M 206.820312 413.503906 " fill-opacity="1" fill-rule="nonzero"/><path fill="#d0cdc3" d="M 321.875 413.503906 L 328.605469 413.503906 L 328.605469 221.410156 L 321.875 221.410156 Z M 321.875 413.503906 " fill-opacity="1" fill-rule="nonzero"/><path fill="#d0cdc3" d="M 199 126.054688 L 98.746094 226.269531 L 93.984375 221.515625 L 186.117188 129.417969 L 189.480469 126.054688 L 199 126.054688 " fill-opacity="1" fill-rule="nonzero"/><path fill="#d0cdc3" d="M 311.835938 126.054688 L 211.578125 226.269531 L 206.820312 221.515625 L 302.320312 126.054688 L 311.835938 126.054688 " fill-opacity="1" fill-rule="nonzero"/><path fill="#d0cdc3" d="M 426.890625 126.054688 L 326.632812 226.269531 L 321.875 221.515625 L 414.007812 129.417969 L 417.367188 126.054688 L 426.890625 126.054688 " fill-opacity="1" fill-rule="nonzero"/><path fill="#d0cdc3" d="M 375.339844 179.058594 L 52.679688 179.058594 L 55.371094 174.765625 L 368.851562 174.765625 L 375.339844 179.058594 " fill-opacity="1" fill-rule="nonzero"/><path fill="#b0df77" d="M 195.933594 392.378906 C 193.800781 394.082031 191.003906 395.453125 187.699219 396.421875 C 190.703125 396.730469 193.4375 399.046875 193.25 400.660156 C 193.0625 402.273438 190.789062 403.183594 188.210938 403.539062 C 184.945312 403.988281 181.679688 403.75 178.84375 403 C 178.617188 402.933594 178.394531 402.871094 178.171875 402.804688 C 177.945312 402.738281 177.71875 402.664062 177.496094 402.589844 C 172.886719 401.007812 169.761719 397.972656 170.34375 394.285156 C 170.445312 393.609375 170.75 392.945312 171.65625 392.632812 C 172.554688 392.320312 174.210938 392.511719 175.125 393.195312 C 174.09375 390.042969 173.054688 386.882812 172.015625 383.730469 C 171.675781 382.703125 171.359375 381.597656 172.203125 380.90625 C 173.039062 380.21875 175.566406 380.347656 176.640625 381.355469 C 177.109375 379.785156 176.292969 377.929688 175.714844 376.15625 C 175.140625 374.378906 174.828125 372.527344 176.203125 371.300781 C 177.574219 370.070312 181.203125 369.804688 183.929688 371.1875 C 184.917969 367.984375 184.140625 365.082031 186.039062 362.1875 C 186.867188 360.925781 190.886719 359.410156 193.621094 360.234375 C 198.394531 361.605469 201.597656 371.699219 195.65625 374.382812 C 198.269531 374.453125 199.96875 376.835938 199.738281 378.277344 C 199.304688 380.941406 196.71875 383.042969 192.738281 383.957031 C 195.644531 384.691406 197.820312 386.691406 198.136719 388.328125 C 198.453125 389.964844 197.324219 391.277344 195.933594 392.378906 " fill-opacity="1" fill-rule="nonzero"/><path fill="#ffffff" d="M 179.980469 401.511719 C 179.640625 401.976562 179.296875 402.433594 178.945312 402.890625 L 178.84375 403 C 178.617188 402.933594 178.394531 402.871094 178.171875 402.804688 C 177.945312 402.738281 177.71875 402.664062 177.496094 402.589844 L 177.5 402.519531 C 177.523438 402.398438 177.574219 402.273438 177.65625 402.179688 C 185.09375 393.308594 189.59375 383.210938 190.949219 372.339844 C 191.019531 371.800781 191.0625 371.246094 191.136719 370.710938 C 190.648438 381.855469 186.753906 392.292969 179.980469 401.511719 " fill-opacity="1" fill-rule="nonzero"/><path fill="#b0df77" d="M 185.75 379.132812 C 185.570312 382.28125 184.59375 385.765625 182.867188 389.402344 C 185.472656 386.988281 189.617188 386.304688 190.882812 387.671875 C 192.140625 389.039062 191.171875 391.71875 189.46875 394.257812 C 187.324219 397.464844 184.578125 400.164062 181.714844 402.101562 C 181.484375 402.261719 181.25 402.40625 181.019531 402.554688 C 180.785156 402.703125 180.546875 402.84375 180.308594 402.984375 C 175.339844 405.871094 170.261719 406.359375 167.496094 403.105469 C 166.992188 402.507812 166.652344 401.742188 167.078125 400.714844 C 167.511719 399.6875 168.964844 398.375 170.273438 398.074219 C 166.714844 396.636719 163.15625 395.203125 159.601562 393.761719 C 158.445312 393.292969 157.226562 392.746094 157.28125 391.492188 C 157.335938 390.242188 159.414062 388.109375 161.125 387.917969 C 160.121094 386.332031 157.871094 385.667969 155.875 384.855469 C 153.882812 384.035156 152.023438 382.929688 152.023438 380.804688 C 152.015625 378.683594 154.605469 375.289062 157.933594 373.914062 C 155.910156 370.65625 152.769531 369.175781 151.726562 365.34375 C 151.269531 363.675781 153.078125 359.007812 155.917969 357.207031 C 160.832031 354.023438 172.125 358.726562 169.839844 365.96875 C 171.929688 363.714844 175.335938 363.992188 176.410156 365.269531 C 178.398438 367.640625 178.214844 371.488281 175.917969 375.671875 C 178.820312 373.652344 182.253906 373.234375 183.929688 374.171875 C 185.601562 375.113281 185.867188 377.089844 185.75 379.132812 " fill-opacity="1" fill-rule="nonzero"/><path fill="#ffffff" d="M 181.300781 399.992188 C 181.4375 400.636719 181.570312 401.285156 181.695312 401.941406 L 181.714844 402.101562 C 181.484375 402.261719 181.25 402.40625 181.019531 402.554688 C 180.785156 402.703125 180.546875 402.84375 180.308594 402.984375 L 180.253906 402.929688 C 180.160156 402.820312 180.09375 402.683594 180.074219 402.546875 C 178.125 389.371094 172.816406 377.882812 164.398438 368.589844 C 163.980469 368.128906 163.53125 367.671875 163.125 367.207031 C 172.457031 375.945312 178.535156 387.160156 181.300781 399.992188 " fill-opacity="1" fill-rule="nonzero"/><path fill="#b0df77" d="M 273.953125 390.238281 C 271.460938 392.222656 268.207031 393.820312 264.355469 394.945312 C 267.851562 395.308594 271.035156 398.003906 270.820312 399.882812 C 270.605469 401.761719 267.957031 402.824219 264.949219 403.238281 C 261.152344 403.761719 257.34375 403.484375 254.039062 402.609375 C 253.773438 402.535156 253.515625 402.460938 253.253906 402.382812 C 252.988281 402.304688 252.726562 402.222656 252.46875 402.132812 C 247.097656 400.292969 243.457031 396.75 244.128906 392.457031 C 244.253906 391.667969 244.613281 390.894531 245.660156 390.535156 C 246.714844 390.167969 248.636719 390.390625 249.707031 391.1875 C 248.5 387.511719 247.289062 383.839844 246.082031 380.160156 C 245.691406 378.964844 245.320312 377.671875 246.296875 376.875 C 247.273438 376.070312 250.222656 376.21875 251.472656 377.390625 C 252.011719 375.566406 251.066406 373.40625 250.394531 371.335938 C 249.726562 369.269531 249.367188 367.109375 250.960938 365.679688 C 252.558594 364.246094 256.785156 363.9375 259.960938 365.546875 C 261.113281 361.816406 260.210938 358.433594 262.421875 355.058594 C 263.386719 353.59375 268.070312 351.828125 271.257812 352.78125 C 276.820312 354.382812 280.550781 366.140625 273.621094 369.273438 C 276.667969 369.351562 278.65625 372.128906 278.382812 373.804688 C 277.875 376.914062 274.859375 379.363281 270.226562 380.425781 C 273.617188 381.28125 276.144531 383.613281 276.519531 385.515625 C 276.886719 387.425781 275.5625 388.953125 273.953125 390.238281 " fill-opacity="1" fill-rule="nonzero"/><path fill="#ffffff" d="M 255.363281 400.878906 C 254.96875 401.414062 254.5625 401.949219 254.148438 402.480469 L 254.039062 402.609375 C 253.773438 402.535156 253.515625 402.460938 253.253906 402.382812 C 252.988281 402.304688 252.726562 402.222656 252.46875 402.132812 L 252.476562 402.054688 C 252.496094 401.90625 252.558594 401.769531 252.652344 401.660156 C 261.324219 391.320312 266.558594 379.554688 268.144531 366.894531 C 268.21875 366.261719 268.277344 365.613281 268.359375 364.988281 C 267.789062 377.976562 263.257812 390.140625 255.363281 400.878906 " fill-opacity="1" fill-rule="nonzero"/><path fill="#b0df77" d="M 262.085938 374.804688 C 261.875 378.472656 260.734375 382.535156 258.726562 386.769531 C 261.761719 383.957031 266.589844 383.160156 268.058594 384.753906 C 269.527344 386.34375 268.398438 389.472656 266.417969 392.421875 C 263.917969 396.160156 260.714844 399.308594 257.382812 401.566406 C 257.109375 401.75 256.84375 401.921875 256.574219 402.09375 C 256.300781 402.265625 256.019531 402.433594 255.742188 402.59375 C 249.960938 405.953125 244.042969 406.523438 240.816406 402.734375 C 240.234375 402.039062 239.835938 401.144531 240.332031 399.949219 C 240.835938 398.75 242.53125 397.222656 244.050781 396.875 C 239.90625 395.203125 235.765625 393.523438 231.617188 391.847656 C 230.269531 391.304688 228.855469 390.667969 228.917969 389.207031 C 228.980469 387.75 231.398438 385.261719 233.394531 385.035156 C 232.222656 383.195312 229.605469 382.421875 227.28125 381.46875 C 224.953125 380.519531 222.789062 379.230469 222.785156 376.753906 C 222.785156 374.277344 225.792969 370.328125 229.671875 368.722656 C 227.316406 364.929688 223.664062 363.203125 222.445312 358.742188 C 221.914062 356.800781 224.019531 351.359375 227.332031 349.257812 C 233.046875 345.550781 246.207031 351.03125 243.542969 359.464844 C 245.984375 356.84375 249.953125 357.164062 251.199219 358.648438 C 253.519531 361.414062 253.308594 365.894531 250.628906 370.773438 C 254.011719 368.421875 258.015625 367.929688 259.960938 369.027344 C 261.910156 370.121094 262.21875 372.421875 262.085938 374.804688 " fill-opacity="1" fill-rule="nonzero"/><path fill="#ffffff" d="M 256.898438 399.113281 C 257.0625 399.859375 257.214844 400.617188 257.355469 401.375 L 257.382812 401.566406 C 257.109375 401.75 256.84375 401.921875 256.574219 402.09375 C 256.300781 402.265625 256.019531 402.433594 255.742188 402.59375 L 255.679688 402.53125 C 255.566406 402.402344 255.496094 402.246094 255.472656 402.082031 C 253.199219 386.734375 247.019531 373.351562 237.207031 362.519531 C 236.71875 361.980469 236.199219 361.453125 235.726562 360.910156 C 246.601562 371.089844 253.675781 384.152344 256.898438 399.113281 " fill-opacity="1" fill-rule="nonzero"/><path fill="#b0df77" d="M 431.855469 390.238281 C 429.363281 392.222656 426.105469 393.820312 422.253906 394.945312 C 425.753906 395.308594 428.941406 398.003906 428.71875 399.882812 C 428.503906 401.761719 425.855469 402.824219 422.847656 403.238281 C 419.050781 403.761719 415.246094 403.484375 411.941406 402.609375 C 411.679688 402.535156 411.414062 402.460938 411.15625 402.382812 C 410.890625 402.304688 410.628906 402.222656 410.371094 402.132812 C 404.996094 400.292969 401.355469 396.75 402.027344 392.457031 C 402.152344 391.667969 402.511719 390.894531 403.558594 390.535156 C 404.613281 390.167969 406.542969 390.390625 407.605469 391.1875 C 406.398438 387.511719 405.1875 383.839844 403.984375 380.160156 C 403.589844 378.964844 403.21875 377.671875 404.199219 376.875 C 405.171875 376.070312 408.121094 376.21875 409.371094 377.390625 C 409.914062 375.566406 408.96875 373.40625 408.292969 371.335938 C 407.625 369.269531 407.265625 367.109375 408.859375 365.679688 C 410.457031 364.246094 414.6875 363.9375 417.863281 365.546875 C 419.011719 361.816406 418.109375 358.433594 420.320312 355.058594 C 421.285156 353.59375 425.96875 351.828125 429.15625 352.78125 C 434.71875 354.382812 438.453125 366.140625 431.519531 369.273438 C 434.570312 369.351562 436.554688 372.128906 436.28125 373.804688 C 435.777344 376.914062 432.757812 379.363281 428.125 380.425781 C 431.515625 381.28125 434.050781 383.613281 434.414062 385.515625 C 434.789062 387.425781 433.46875 388.953125 431.855469 390.238281 " fill-opacity="1" fill-rule="nonzero"/><path fill="#ffffff" d="M 413.261719 400.878906 C 412.871094 401.414062 412.464844 401.949219 412.054688 402.480469 L 411.941406 402.609375 C 411.679688 402.535156 411.414062 402.460938 411.15625 402.382812 C 410.890625 402.304688 410.628906 402.222656 410.371094 402.132812 L 410.375 402.054688 C 410.394531 401.90625 410.457031 401.769531 410.550781 401.660156 C 419.222656 391.320312 424.464844 379.554688 426.042969 366.894531 C 426.121094 366.261719 426.175781 365.613281 426.257812 364.988281 C 425.695312 377.976562 421.15625 390.140625 413.261719 400.878906 " fill-opacity="1" fill-rule="nonzero"/><path fill="#b0df77" d="M 419.984375 374.804688 C 419.773438 378.472656 418.632812 382.535156 416.625 386.769531 C 419.664062 383.957031 424.492188 383.160156 425.960938 384.753906 C 427.429688 386.34375 426.296875 389.472656 424.320312 392.421875 C 421.816406 396.160156 418.617188 399.308594 415.28125 401.566406 C 415.011719 401.75 414.746094 401.921875 414.472656 402.09375 C 414.199219 402.265625 413.917969 402.433594 413.640625 402.59375 C 407.859375 405.953125 401.941406 406.523438 398.722656 402.734375 C 398.132812 402.039062 397.726562 401.144531 398.234375 399.949219 C 398.738281 398.75 400.429688 397.222656 401.957031 396.875 C 397.808594 395.203125 393.664062 393.523438 389.515625 391.847656 C 388.167969 391.304688 386.753906 390.667969 386.820312 389.207031 C 386.878906 387.75 389.300781 385.261719 391.292969 385.035156 C 390.121094 383.195312 387.507812 382.421875 385.179688 381.46875 C 382.851562 380.519531 380.6875 379.230469 380.6875 376.753906 C 380.683594 374.277344 383.695312 370.328125 387.570312 368.722656 C 385.214844 364.929688 381.5625 363.203125 380.34375 358.742188 C 379.8125 356.800781 381.917969 351.359375 385.230469 349.257812 C 390.953125 345.550781 404.105469 351.03125 401.449219 359.464844 C 403.882812 356.84375 407.851562 357.164062 409.101562 358.648438 C 411.417969 361.414062 411.207031 365.894531 408.53125 370.773438 C 411.910156 368.421875 415.914062 367.929688 417.863281 369.027344 C 419.8125 370.121094 420.117188 372.421875 419.984375 374.804688 " fill-opacity="1" fill-rule="nonzero"/><path fill="#ffffff" d="M 414.796875 399.113281 C 414.960938 399.859375 415.113281 400.617188 415.257812 401.375 L 415.28125 401.566406 C 415.011719 401.75 414.746094 401.921875 414.472656 402.09375 C 414.199219 402.265625 413.917969 402.433594 413.640625 402.59375 L 413.578125 402.53125 C 413.46875 402.402344 413.394531 402.246094 413.371094 402.082031 C 411.101562 386.734375 404.917969 373.351562 395.105469 362.519531 C 394.617188 361.980469 394.101562 361.453125 393.625 360.910156 C 404.5 371.089844 411.574219 384.152344 414.796875 399.113281 " fill-opacity="1" fill-rule="nonzero"/><path fill="#b0df77" d="M 350.183594 392.378906 C 348.046875 394.082031 345.253906 395.453125 341.945312 396.421875 C 344.949219 396.730469 347.683594 399.046875 347.496094 400.660156 C 347.308594 402.273438 345.035156 403.183594 342.457031 403.539062 C 339.195312 403.988281 335.929688 403.75 333.09375 403 C 332.867188 402.933594 332.640625 402.871094 332.417969 402.804688 C 332.191406 402.738281 331.964844 402.664062 331.746094 402.589844 C 327.132812 401.007812 324.007812 397.972656 324.585938 394.285156 C 324.695312 393.609375 325 392.945312 325.902344 392.632812 C 326.804688 392.320312 328.457031 392.511719 329.375 393.195312 C 328.335938 390.042969 327.296875 386.882812 326.261719 383.730469 C 325.921875 382.703125 325.609375 381.597656 326.445312 380.90625 C 327.285156 380.21875 329.816406 380.347656 330.890625 381.355469 C 331.351562 379.785156 330.539062 377.929688 329.964844 376.15625 C 329.386719 374.378906 329.078125 372.527344 330.449219 371.300781 C 331.824219 370.070312 335.445312 369.804688 338.175781 371.1875 C 339.164062 367.984375 338.386719 365.082031 340.289062 362.1875 C 341.113281 360.925781 345.132812 359.410156 347.871094 360.234375 C 352.644531 361.605469 355.847656 371.699219 349.902344 374.382812 C 352.515625 374.453125 354.21875 376.835938 353.988281 378.277344 C 353.550781 380.941406 350.960938 383.042969 346.984375 383.957031 C 349.894531 384.691406 352.066406 386.691406 352.382812 388.328125 C 352.703125 389.964844 351.570312 391.277344 350.183594 392.378906 " fill-opacity="1" fill-rule="nonzero"/><path fill="#ffffff" d="M 334.230469 401.511719 C 333.890625 401.976562 333.542969 402.433594 333.1875 402.890625 L 333.09375 403 C 332.867188 402.933594 332.640625 402.871094 332.417969 402.804688 C 332.191406 402.738281 331.964844 402.664062 331.746094 402.589844 L 331.75 402.519531 C 331.769531 402.398438 331.824219 402.273438 331.902344 402.179688 C 339.34375 393.308594 343.839844 383.210938 345.199219 372.339844 C 345.261719 371.800781 345.3125 371.246094 345.386719 370.710938 C 344.894531 381.855469 341 392.292969 334.230469 401.511719 " fill-opacity="1" fill-rule="nonzero"/><path fill="#b0df77" d="M 339.996094 379.132812 C 339.820312 382.28125 338.839844 385.765625 337.113281 389.402344 C 339.722656 386.988281 343.863281 386.304688 345.128906 387.671875 C 346.390625 389.039062 345.414062 391.71875 343.71875 394.257812 C 341.566406 397.464844 338.828125 400.164062 335.957031 402.101562 C 335.730469 402.261719 335.5 402.40625 335.269531 402.554688 C 335.03125 402.703125 334.792969 402.84375 334.554688 402.984375 C 329.589844 405.871094 324.507812 406.359375 321.746094 403.105469 C 321.238281 402.507812 320.894531 401.742188 321.328125 400.714844 C 321.761719 399.6875 323.210938 398.375 324.519531 398.074219 C 320.964844 396.636719 317.40625 395.203125 313.847656 393.761719 C 312.691406 393.292969 311.476562 392.746094 311.53125 391.492188 C 311.585938 390.242188 313.660156 388.109375 315.375 387.917969 C 314.371094 386.332031 312.121094 385.667969 310.121094 384.855469 C 308.128906 384.035156 306.269531 382.929688 306.265625 380.804688 C 306.265625 378.679688 308.851562 375.289062 312.179688 373.914062 C 310.15625 370.65625 307.019531 369.175781 305.976562 365.34375 C 305.515625 363.675781 307.324219 359.007812 310.167969 357.207031 C 315.078125 354.019531 326.371094 358.726562 324.082031 365.96875 C 326.179688 363.714844 329.585938 363.992188 330.65625 365.269531 C 332.644531 367.640625 332.464844 371.488281 330.164062 375.671875 C 333.070312 373.652344 336.503906 373.234375 338.175781 374.171875 C 339.851562 375.113281 340.117188 377.089844 339.996094 379.132812 " fill-opacity="1" fill-rule="nonzero"/><path fill="#ffffff" d="M 335.550781 399.992188 C 335.6875 400.636719 335.820312 401.285156 335.941406 401.941406 L 335.957031 402.101562 C 335.730469 402.261719 335.5 402.40625 335.269531 402.554688 C 335.03125 402.703125 334.792969 402.84375 334.554688 402.984375 L 334.5 402.929688 C 334.402344 402.820312 334.34375 402.683594 334.324219 402.546875 C 332.375 389.371094 327.066406 377.882812 318.644531 368.589844 C 318.226562 368.128906 317.78125 367.671875 317.371094 367.207031 C 326.707031 375.945312 332.777344 387.160156 335.550781 399.992188 " fill-opacity="1" fill-rule="nonzero"/><path fill="#a8d792" d="M 123.835938 404.785156 L 109.96875 323.710938 L 112.980469 323.195312 L 126.847656 404.265625 L 123.835938 404.785156 " fill-opacity="1" fill-rule="nonzero"/><path fill="#a8d792" d="M 93.957031 311.148438 C 93.957031 311.148438 103.855469 331.394531 112.753906 326.542969 C 112.753906 326.542969 116.996094 315.074219 93.957031 311.148438 " fill-opacity="1" fill-rule="nonzero"/><path fill="#a8d792" d="M 93.378906 326.449219 C 93.378906 326.449219 105.542969 345.417969 113.828125 339.574219 C 113.828125 339.574219 116.714844 327.691406 93.378906 326.449219 " fill-opacity="1" fill-rule="nonzero"/><path fill="#a8d792" d="M 95.265625 341.402344 C 95.265625 341.402344 107.429688 360.371094 115.710938 354.527344 C 115.710938 354.527344 118.601562 342.644531 95.265625 341.402344 " fill-opacity="1" fill-rule="nonzero"/><path fill="#a8d792" d="M 99.230469 359.296875 C 99.230469 359.296875 111.394531 378.265625 119.675781 372.425781 C 119.675781 372.425781 122.5625 360.542969 99.230469 359.296875 " fill-opacity="1" fill-rule="nonzero"/><path fill="#a8d792" d="M 116.878906 301.886719 C 116.878906 301.886719 103.78125 320.226562 112.292969 325.738281 C 112.292969 325.738281 124.394531 324 116.878906 301.886719 " fill-opacity="1" fill-rule="nonzero"/><path fill="#a8d792" d="M 124.152344 329.15625 C 124.152344 329.15625 108.828125 345.679688 116.558594 352.230469 C 116.558594 352.230469 128.789062 352.046875 124.152344 329.15625 " fill-opacity="1" fill-rule="nonzero"/><path fill="#a8d792" d="M 127.453125 345.804688 C 127.453125 345.804688 112.125 362.324219 119.855469 368.875 C 119.855469 368.875 132.085938 368.699219 127.453125 345.804688 " fill-opacity="1" fill-rule="nonzero"/><path fill="#a8d792" d="M 123.328125 315.757812 C 123.328125 315.757812 108 332.277344 115.730469 338.832031 C 115.730469 338.832031 127.964844 338.648438 123.328125 315.757812 " fill-opacity="1" fill-rule="nonzero"/><path fill="#a8d792" d="M 37.554688 401.777344 L 28.933594 351.355469 L 31.945312 350.84375 L 40.566406 401.261719 L 37.554688 401.777344 " fill-opacity="1" fill-rule="nonzero"/><path fill="#a8d792" d="M 19.542969 343.449219 C 19.542969 343.449219 25.699219 356.039062 31.234375 353.023438 C 31.234375 353.023438 33.871094 345.890625 19.542969 343.449219 " fill-opacity="1" fill-rule="nonzero"/><path fill="#a8d792" d="M 19.183594 352.960938 C 19.183594 352.960938 26.753906 364.761719 31.898438 361.128906 C 31.898438 361.128906 33.695312 353.738281 19.183594 352.960938 " fill-opacity="1" fill-rule="nonzero"/><path fill="#a8d792" d="M 20.355469 362.265625 C 20.355469 362.265625 27.921875 374.058594 33.074219 370.425781 C 33.074219 370.425781 34.867188 363.035156 20.355469 362.265625 " fill-opacity="1" fill-rule="nonzero"/><path fill="#a8d792" d="M 22.824219 373.394531 C 22.824219 373.394531 30.390625 385.191406 35.542969 381.554688 C 35.542969 381.554688 37.332031 374.167969 22.824219 373.394531 " fill-opacity="1" fill-rule="nonzero"/><path fill="#a8d792" d="M 33.800781 337.691406 C 33.800781 337.691406 25.65625 349.089844 30.945312 352.519531 C 30.945312 352.519531 38.472656 351.441406 33.800781 337.691406 " fill-opacity="1" fill-rule="nonzero"/><path fill="#a8d792" d="M 38.320312 354.644531 C 38.320312 354.644531 28.789062 364.921875 33.601562 369 C 33.601562 369 41.203125 368.886719 38.320312 354.644531 " fill-opacity="1" fill-rule="nonzero"/><path fill="#a8d792" d="M 40.375 365 C 40.375 365 30.839844 375.273438 35.648438 379.351562 C 35.648438 379.351562 43.257812 379.238281 40.375 365 " fill-opacity="1" fill-rule="nonzero"/><path fill="#a8d792" d="M 37.808594 346.3125 C 37.808594 346.3125 28.277344 356.589844 33.085938 360.664062 C 33.085938 360.664062 40.691406 360.554688 37.808594 346.3125 " fill-opacity="1" fill-rule="nonzero"/><path fill="#a8d792" d="M 41.789062 401.128906 L 38.796875 400.527344 L 53.289062 328.445312 L 56.28125 329.046875 L 41.789062 401.128906 " fill-opacity="1" fill-rule="nonzero"/><path fill="#a8d792" d="M 44.128906 312.859375 C 44.128906 312.859375 45.878906 332.929688 54.863281 331.738281 C 54.863281 331.738281 62.085938 323.53125 44.128906 312.859375 " fill-opacity="1" fill-rule="nonzero"/><path fill="#a8d792" d="M 38.730469 325.4375 C 38.730469 325.4375 42.78125 345.167969 51.566406 342.953125 C 51.566406 342.953125 57.792969 333.972656 38.730469 325.4375 " fill-opacity="1" fill-rule="nonzero"/><path fill="#a8d792" d="M 35.496094 338.515625 C 35.496094 338.515625 39.546875 358.246094 48.335938 356.03125 C 48.335938 356.03125 54.558594 347.046875 35.496094 338.515625 " fill-opacity="1" fill-rule="nonzero"/><path fill="#a8d792" d="M 33.050781 354.71875 C 33.050781 354.71875 37.101562 374.449219 45.890625 372.230469 C 45.890625 372.230469 52.113281 363.25 33.050781 354.71875 " fill-opacity="1" fill-rule="nonzero"/><path fill="#a8d792" d="M 66.222656 312.496094 C 66.222656 312.496094 49.40625 323.59375 54.730469 330.917969 C 54.730469 330.917969 65.390625 333.355469 66.222656 312.496094 " fill-opacity="1" fill-rule="nonzero"/><path fill="#a8d792" d="M 63.53125 337.578125 C 63.53125 337.578125 45.433594 346.433594 49.777344 354.382812 C 49.777344 354.382812 60.035156 358.164062 63.53125 337.578125 " fill-opacity="1" fill-rule="nonzero"/><path fill="#a8d792" d="M 60.925781 352.523438 C 60.925781 352.523438 42.832031 361.382812 47.179688 369.332031 C 47.179688 369.332031 57.4375 373.109375 60.925781 352.523438 " fill-opacity="1" fill-rule="nonzero"/><path fill="#a8d792" d="M 67.148438 326.136719 C 67.148438 326.136719 49.054688 334.992188 53.398438 342.941406 C 53.398438 342.941406 63.652344 346.722656 67.148438 326.136719 " fill-opacity="1" fill-rule="nonzero"/><path fill="#a8d792" d="M 127.625 405.15625 L 124.609375 404.691406 L 136.585938 327.125 L 158.15625 297.019531 L 160.636719 298.800781 L 139.492188 328.308594 L 127.625 405.15625 " fill-opacity="1" fill-rule="nonzero"/><path fill="#a8d792" d="M 167.664062 321.015625 C 167.664062 321.015625 147.371094 311.207031 143.371094 320.519531 C 143.371094 320.519531 147.128906 332.15625 167.664062 321.015625 " fill-opacity="1" fill-rule="nonzero"/><path fill="#a8d792" d="M 175.1875 311.835938 C 175.1875 311.835938 154.894531 302.03125 150.894531 311.34375 C 150.894531 311.34375 154.65625 322.980469 175.1875 311.835938 " fill-opacity="1" fill-rule="nonzero"/><path fill="#a8d792" d="M 182.246094 302.027344 C 182.246094 302.027344 161.953125 292.222656 157.953125 301.535156 C 157.953125 301.535156 161.710938 313.171875 182.246094 302.027344 " fill-opacity="1" fill-rule="nonzero"/><path fill="#a8d792" d="M 176.957031 283.050781 C 176.957031 283.050781 155.371094 289.558594 158.734375 299.121094 C 158.734375 299.121094 169.371094 305.144531 176.957031 283.050781 " fill-opacity="1" fill-rule="nonzero"/><path fill="#a8d792" d="M 152.859375 277.878906 C 152.859375 277.878906 146.402344 299.46875 156.234375 301.933594 C 156.234375 301.933594 167.128906 296.375 152.859375 277.878906 " fill-opacity="1" fill-rule="nonzero"/><path fill="#a8d792" d="M 146.160156 287.839844 C 146.160156 287.839844 139.707031 309.429688 149.535156 311.894531 C 149.535156 311.894531 160.429688 306.335938 146.160156 287.839844 " fill-opacity="1" fill-rule="nonzero"/><path fill="#a8d792" d="M 136.109375 297.515625 C 136.109375 297.515625 133.550781 319.902344 143.660156 320.601562 C 143.660156 320.601562 153.410156 313.214844 136.109375 297.515625 " fill-opacity="1" fill-rule="nonzero"/><path fill="#a8d792" d="M 122.195312 312.789062 C 122.195312 312.789062 128.007812 334.5625 137.679688 331.515625 C 137.679688 331.515625 144.046875 321.074219 122.195312 312.789062 " fill-opacity="1" fill-rule="nonzero"/><path fill="#a8d792" d="M 116.5625 328.097656 C 116.5625 328.097656 126.464844 348.34375 135.359375 343.488281 C 135.359375 343.488281 139.597656 332.019531 116.5625 328.097656 " fill-opacity="1" fill-rule="nonzero"/><path fill="#a8d792" d="M 160.71875 327.078125 C 160.71875 327.078125 138.804688 321.800781 136.875 331.746094 C 136.875 331.746094 143.015625 342.324219 160.71875 327.078125 " fill-opacity="1" fill-rule="nonzero"/><path fill="#a8d792" d="M 159.609375 344.351562 C 159.609375 344.351562 139.484375 334.203125 135.332031 343.445312 C 135.332031 343.445312 138.886719 355.140625 159.609375 344.351562 " fill-opacity="1" fill-rule="nonzero"/><path fill="#eaf8f5" d="M 195.589844 221.515625 L 214.324219 214.011719 L 206.921875 221.410156 L 206.820312 221.410156 L 206.820312 221.503906 L 195.589844 221.515625 M 216.351562 221.5 L 230.199219 207.65625 L 301.628906 179.058594 L 364.34375 179.058594 L 321.976562 221.410156 L 321.875 221.410156 L 321.875 221.429688 L 216.351562 221.5 M 331.484375 221.425781 L 373.863281 179.058594 L 375.339844 179.058594 L 374.449219 178.472656 L 418.84375 134.09375 L 351.320312 221.410156 L 331.484375 221.425781 M 368.640625 174.765625 L 312.355469 174.765625 L 406.242188 137.179688 L 368.640625 174.765625 " fill-opacity="1" fill-rule="nonzero"/><path fill="#ebeae5" d="M 206.820312 221.503906 L 206.820312 221.410156 L 206.921875 221.410156 L 206.828125 221.503906 L 206.820312 221.503906 " fill-opacity="1" fill-rule="nonzero"/><path fill="#ebeae5" d="M 321.875 221.429688 L 321.875 221.410156 L 321.976562 221.410156 L 321.957031 221.429688 L 321.875 221.429688 " fill-opacity="1" fill-rule="nonzero"/><path fill="#ebeae5" d="M 206.828125 221.503906 L 214.324219 214.011719 L 230.199219 207.65625 L 216.351562 221.5 L 206.828125 221.503906 " fill-opacity="1" fill-rule="nonzero"/><path fill="#ebeae5" d="M 321.957031 221.429688 L 364.34375 179.058594 L 373.863281 179.058594 L 331.484375 221.425781 L 321.957031 221.429688 M 374.449219 178.472656 L 368.851562 174.765625 L 368.640625 174.765625 L 406.242188 137.179688 L 421.042969 131.253906 L 418.84375 134.09375 L 374.449219 178.472656 " fill-opacity="1" fill-rule="nonzero"/><path fill="#ebeae5" d="M 375.339844 179.058594 L 301.628906 179.058594 L 312.355469 174.765625 L 368.851562 174.765625 L 374.449219 178.472656 L 375.339844 179.058594 " fill-opacity="1" fill-rule="nonzero"/><path fill="#ceeba6" d="M 328.605469 399.679688 L 332.621094 394.367188 C 333.09375 396.101562 333.496094 397.867188 333.835938 399.671875 L 328.605469 399.679688 " fill-opacity="1" fill-rule="nonzero"/><path fill="#e0f5f2" d="M 347.289062 399.65625 C 346.621094 398.25 344.460938 396.742188 342.101562 396.441406 C 342.125 396.410156 342.148438 396.382812 342.171875 396.351562 C 345.378906 395.386719 348.097656 394.039062 350.183594 392.378906 C 351.570312 391.277344 352.703125 389.964844 352.382812 388.328125 C 352.066406 386.691406 349.894531 384.691406 346.984375 383.957031 C 350.960938 383.042969 353.550781 380.941406 353.988281 378.277344 C 354.21875 376.835938 352.515625 374.453125 349.902344 374.382812 C 352.679688 373.128906 353.460938 370.257812 353.019531 367.417969 L 458.417969 228.140625 L 474.121094 228.140625 L 433.433594 356.460938 C 432.332031 354.65625 430.824219 353.261719 429.15625 352.78125 C 428.527344 352.59375 427.84375 352.515625 427.140625 352.515625 C 424.265625 352.515625 421.097656 353.882812 420.320312 355.058594 C 418.109375 358.433594 419.011719 361.816406 417.863281 365.546875 C 416.386719 364.796875 414.6875 364.464844 413.128906 364.464844 C 412.214844 364.464844 411.355469 364.582031 410.609375 364.792969 C 410.921875 362.351562 410.417969 360.222656 409.101562 358.648438 C 408.515625 357.949219 407.328125 357.511719 405.984375 357.511719 C 404.464844 357.511719 402.738281 358.074219 401.449219 359.464844 C 403.523438 352.863281 395.933594 348.078125 389.792969 348.078125 C 388.078125 348.078125 386.472656 348.453125 385.230469 349.257812 C 381.917969 351.359375 379.8125 356.800781 380.34375 358.742188 C 381.5625 363.203125 385.214844 364.929688 387.570312 368.722656 C 383.695312 370.328125 380.683594 374.277344 380.6875 376.753906 C 380.6875 379.230469 382.851562 380.519531 385.179688 381.46875 C 387.507812 382.421875 390.121094 383.195312 391.292969 385.035156 C 389.300781 385.261719 386.878906 387.75 386.820312 389.207031 C 386.785156 390.011719 387.203125 390.574219 387.8125 391 L 353.117188 391 L 354.15625 399.648438 L 347.289062 399.65625 M 397.34375 399.597656 L 397.871094 395.226562 C 399.230469 395.773438 400.59375 396.324219 401.957031 396.875 C 400.574219 397.1875 399.058594 398.46875 398.40625 399.597656 L 397.34375 399.597656 " fill-opacity="1" fill-rule="nonzero"/><path fill="#ceeba6" d="M 417.910156 399.578125 C 418.8125 398.816406 419.695312 397.992188 420.542969 397.109375 L 419.757812 399.574219 L 417.910156 399.578125 M 416.625 386.769531 C 418.632812 382.535156 419.773438 378.472656 419.984375 374.804688 C 420.117188 372.421875 419.8125 370.121094 417.863281 369.027344 C 417.210938 368.660156 416.324219 368.472656 415.308594 368.472656 C 413.296875 368.472656 410.773438 369.210938 408.53125 370.773438 C 409.6875 368.667969 410.378906 366.640625 410.609375 364.792969 C 411.355469 364.582031 412.214844 364.464844 413.128906 364.464844 C 414.6875 364.464844 416.386719 364.796875 417.863281 365.546875 C 419.011719 361.816406 418.109375 358.433594 420.320312 355.058594 C 421.097656 353.882812 424.265625 352.515625 427.140625 352.515625 C 427.84375 352.515625 428.527344 352.59375 429.15625 352.78125 C 430.824219 353.261719 432.332031 354.65625 433.433594 356.460938 L 424.675781 384.070312 C 424.316406 383.988281 423.910156 383.941406 423.472656 383.941406 C 423.140625 383.941406 422.785156 383.96875 422.421875 384.015625 C 424.664062 377.941406 425.972656 371.570312 426.257812 364.988281 C 426.175781 365.613281 426.121094 366.261719 426.042969 366.894531 C 425.292969 372.890625 423.726562 378.6875 421.359375 384.226562 C 419.730469 384.640625 417.992188 385.5 416.625 386.769531 " fill-opacity="1" fill-rule="nonzero"/><path fill="#ffffff" d="M 421.359375 384.226562 C 423.726562 378.6875 425.292969 372.890625 426.042969 366.894531 C 426.121094 366.261719 426.175781 365.613281 426.257812 364.988281 C 425.972656 371.570312 424.664062 377.941406 422.421875 384.015625 C 422.078125 384.066406 421.71875 384.132812 421.359375 384.226562 " fill-opacity="1" fill-rule="nonzero"/><path fill="#ceeba6" d="M 398.40625 399.597656 C 399.058594 398.46875 400.574219 397.1875 401.957031 396.875 C 400.59375 396.324219 399.230469 395.773438 397.871094 395.226562 L 398.378906 391 L 387.8125 391 C 387.203125 390.574219 386.785156 390.011719 386.820312 389.207031 C 386.878906 387.75 389.300781 385.261719 391.292969 385.035156 C 390.121094 383.195312 387.507812 382.421875 385.179688 381.46875 C 382.851562 380.519531 380.6875 379.230469 380.6875 376.753906 C 380.683594 374.277344 383.695312 370.328125 387.570312 368.722656 C 385.214844 364.929688 381.5625 363.203125 380.34375 358.742188 C 379.8125 356.800781 381.917969 351.359375 385.230469 349.257812 C 386.472656 348.453125 388.078125 348.078125 389.792969 348.078125 C 395.933594 348.078125 403.523438 352.863281 401.449219 359.464844 C 402.738281 358.074219 404.464844 357.511719 405.984375 357.511719 C 407.328125 357.511719 408.515625 357.949219 409.101562 358.648438 C 410.417969 360.222656 410.921875 362.351562 410.609375 364.792969 C 410.378906 366.640625 409.6875 368.667969 408.53125 370.773438 C 410.773438 369.210938 413.296875 368.472656 415.308594 368.472656 C 416.324219 368.472656 417.210938 368.660156 417.863281 369.027344 C 419.8125 370.121094 420.117188 372.421875 419.984375 374.804688 C 419.773438 378.472656 418.632812 382.535156 416.625 386.769531 C 417.992188 385.5 419.730469 384.640625 421.359375 384.226562 C 421.71875 384.132812 422.078125 384.066406 422.421875 384.015625 C 422.785156 383.96875 423.140625 383.941406 423.472656 383.941406 C 423.910156 383.941406 424.316406 383.988281 424.675781 384.070312 L 420.542969 397.109375 C 419.695312 397.992188 418.8125 398.816406 417.910156 399.578125 L 414.902344 399.578125 C 414.867188 399.421875 414.832031 399.269531 414.796875 399.113281 C 411.574219 384.152344 404.5 371.089844 393.625 360.910156 C 394.101562 361.453125 394.617188 361.980469 395.105469 362.519531 C 404.382812 372.757812 410.414062 385.28125 412.964844 399.585938 L 398.40625 399.597656 " fill-opacity="1" fill-rule="nonzero"/><path fill="#ffffff" d="M 412.964844 399.585938 C 410.414062 385.28125 404.382812 372.757812 395.105469 362.519531 C 394.617188 361.980469 394.101562 361.453125 393.625 360.910156 C 404.5 371.089844 411.574219 384.152344 414.796875 399.113281 C 414.832031 399.269531 414.867188 399.421875 414.902344 399.578125 L 412.964844 399.585938 " fill-opacity="1" fill-rule="nonzero"/><path fill="#ceeba6" d="M 339.050781 399.664062 C 340.125 398.6875 341.148438 397.605469 342.101562 396.441406 C 344.460938 396.742188 346.621094 398.25 347.289062 399.65625 L 339.050781 399.664062 M 342.171875 396.351562 C 342.714844 395.683594 343.230469 394.980469 343.71875 394.257812 C 345.414062 391.71875 346.390625 389.039062 345.128906 387.671875 C 344.695312 387.203125 343.925781 386.976562 342.992188 386.976562 C 342.707031 386.976562 342.402344 386.996094 342.089844 387.042969 C 343.082031 384.351562 343.859375 381.597656 344.417969 378.78125 L 353.019531 367.417969 C 353.460938 370.257812 352.679688 373.128906 349.902344 374.382812 C 352.515625 374.453125 354.21875 376.835938 353.988281 378.277344 C 353.550781 380.941406 350.960938 383.042969 346.984375 383.957031 C 349.894531 384.691406 352.066406 386.691406 352.382812 388.328125 C 352.703125 389.964844 351.570312 391.277344 350.183594 392.378906 C 348.097656 394.039062 345.378906 395.386719 342.171875 396.351562 M 337.113281 389.402344 C 337.476562 388.636719 337.808594 387.871094 338.109375 387.121094 L 343.792969 379.609375 C 343.105469 382.199219 342.234375 384.738281 341.171875 387.222656 C 339.78125 387.578125 338.289062 388.316406 337.113281 389.402344 " fill-opacity="1" fill-rule="nonzero"/><path fill="#ffffff" d="M 341.171875 387.222656 C 342.234375 384.738281 343.105469 382.199219 343.792969 379.609375 L 344.417969 378.78125 C 343.859375 381.597656 343.082031 384.351562 342.089844 387.042969 C 341.789062 387.082031 341.484375 387.144531 341.171875 387.222656 " fill-opacity="1" fill-rule="nonzero"/><path fill="#ceeba6" d="M 335.480469 399.667969 C 334.972656 397.390625 334.367188 395.167969 333.660156 392.996094 L 338.109375 387.121094 C 337.808594 387.871094 337.476562 388.636719 337.113281 389.402344 C 338.289062 388.316406 339.78125 387.578125 341.171875 387.222656 C 341.484375 387.144531 341.789062 387.082031 342.089844 387.042969 C 342.402344 386.996094 342.707031 386.976562 342.992188 386.976562 C 343.925781 386.976562 344.695312 387.203125 345.128906 387.671875 C 346.390625 389.039062 345.414062 391.71875 343.71875 394.257812 C 343.230469 394.980469 342.714844 395.683594 342.171875 396.351562 C 342.148438 396.382812 342.125 396.410156 342.101562 396.441406 C 341.148438 397.605469 340.125 398.6875 339.050781 399.664062 L 335.480469 399.667969 " fill-opacity="1" fill-rule="nonzero"/><path fill="#ffffff" d="M 333.835938 399.671875 C 333.496094 397.867188 333.09375 396.101562 332.621094 394.367188 L 333.660156 392.996094 C 334.367188 395.167969 334.972656 397.390625 335.480469 399.667969 L 333.835938 399.671875 " fill-opacity="1" fill-rule="nonzero"/><path fill="#e0f5f2" d="M 193.355469 399.679688 L 206.820312 387.921875 L 206.820312 399.664062 L 193.355469 399.679688 M 213.550781 399.652344 L 213.550781 382.046875 L 225.382812 371.730469 C 223.789062 373.40625 222.785156 375.324219 222.785156 376.753906 C 222.789062 379.230469 224.953125 380.519531 227.28125 381.46875 C 229.605469 382.421875 232.222656 383.195312 233.394531 385.035156 C 231.398438 385.261719 228.980469 387.75 228.917969 389.207031 C 228.855469 390.667969 230.269531 391.304688 231.617188 391.847656 C 235.765625 393.523438 239.90625 395.203125 244.050781 396.875 C 242.664062 397.1875 241.132812 398.488281 240.492188 399.625 L 213.550781 399.652344 M 270.832031 399.589844 C 270.710938 397.769531 267.785156 395.382812 264.535156 394.96875 C 264.5625 394.9375 264.589844 394.902344 264.617188 394.867188 C 268.355469 393.746094 271.519531 392.171875 273.953125 390.238281 C 275.5625 388.953125 276.886719 387.425781 276.519531 385.515625 C 276.144531 383.613281 273.617188 381.28125 270.226562 380.425781 C 274.859375 379.363281 277.875 376.914062 278.382812 373.804688 C 278.65625 372.128906 276.667969 369.351562 273.621094 369.273438 C 280.550781 366.140625 276.820312 354.382812 271.257812 352.78125 C 270.628906 352.59375 269.945312 352.515625 269.234375 352.515625 C 266.367188 352.515625 263.199219 353.882812 262.421875 355.058594 C 260.210938 358.433594 261.113281 361.816406 259.960938 365.546875 C 258.488281 364.796875 256.785156 364.464844 255.230469 364.464844 C 254.316406 364.464844 253.453125 364.582031 252.710938 364.792969 C 253.023438 362.351562 252.519531 360.222656 251.199219 358.648438 C 250.617188 357.949219 249.429688 357.511719 248.085938 357.511719 C 246.566406 357.511719 244.839844 358.074219 243.542969 359.464844 C 243.960938 358.136719 243.992188 356.882812 243.714844 355.726562 L 321.875 287.511719 L 321.875 346.59375 L 315.070312 356.238281 C 314.738281 356.210938 314.402344 356.195312 314.078125 356.195312 C 312.609375 356.195312 311.234375 356.515625 310.167969 357.207031 C 307.324219 359.007812 305.515625 363.675781 305.976562 365.34375 C 306.214844 366.234375 306.570312 366.996094 307 367.683594 L 284.511719 399.574219 L 270.832031 399.589844 M 227.285156 370.066406 L 229.363281 368.25 C 229.472656 368.402344 229.574219 368.5625 229.671875 368.722656 C 228.824219 369.074219 228.023438 369.535156 227.285156 370.066406 M 328.605469 337.050781 L 328.605469 281.636719 L 389.910156 228.140625 L 405.40625 228.140625 L 328.605469 337.050781 " fill-opacity="1" fill-rule="nonzero"/><path fill="#e3dfda" d="M 206.820312 399.664062 L 206.820312 387.921875 L 213.550781 382.046875 L 213.550781 399.652344 L 206.820312 399.664062 " fill-opacity="1" fill-rule="nonzero"/><path fill="#e3dfda" d="M 321.875 346.59375 L 321.875 287.511719 L 328.605469 281.636719 L 328.605469 337.050781 L 321.875 346.59375 " fill-opacity="1" fill-rule="nonzero"/><path fill="#ceeba6" d="M 259.980469 399.605469 C 261.59375 398.246094 263.132812 396.691406 264.535156 394.96875 C 267.785156 395.382812 270.710938 397.769531 270.832031 399.589844 L 259.980469 399.605469 M 264.617188 394.867188 C 265.25 394.085938 265.851562 393.269531 266.417969 392.421875 C 268.398438 389.472656 269.527344 386.34375 268.058594 384.753906 C 267.558594 384.207031 266.664062 383.941406 265.574219 383.941406 C 265.238281 383.941406 264.886719 383.96875 264.515625 384.015625 C 266.765625 377.941406 268.074219 371.570312 268.359375 364.988281 C 268.277344 365.613281 268.21875 366.261719 268.144531 366.894531 C 267.394531 372.890625 265.820312 378.6875 263.453125 384.226562 C 261.828125 384.640625 260.09375 385.5 258.726562 386.769531 C 260.734375 382.535156 261.875 378.472656 262.085938 374.804688 C 262.21875 372.421875 261.910156 370.121094 259.960938 369.027344 C 259.3125 368.660156 258.425781 368.472656 257.410156 368.472656 C 255.398438 368.472656 252.875 369.210938 250.628906 370.773438 C 251.78125 368.667969 252.480469 366.640625 252.710938 364.792969 C 253.453125 364.582031 254.316406 364.464844 255.230469 364.464844 C 256.785156 364.464844 258.488281 364.796875 259.960938 365.546875 C 261.113281 361.816406 260.210938 358.433594 262.421875 355.058594 C 263.199219 353.882812 266.367188 352.515625 269.234375 352.515625 C 269.945312 352.515625 270.628906 352.59375 271.257812 352.78125 C 276.820312 354.382812 280.550781 366.140625 273.621094 369.273438 C 276.667969 369.351562 278.65625 372.128906 278.382812 373.804688 C 277.875 376.914062 274.859375 379.363281 270.226562 380.425781 C 273.617188 381.28125 276.144531 383.613281 276.519531 385.515625 C 276.886719 387.425781 275.5625 388.953125 273.953125 390.238281 C 271.519531 392.171875 268.355469 393.746094 264.617188 394.867188 " fill-opacity="1" fill-rule="nonzero"/><path fill="#ffffff" d="M 263.453125 384.226562 C 265.820312 378.6875 267.394531 372.890625 268.144531 366.894531 C 268.21875 366.261719 268.277344 365.613281 268.359375 364.988281 C 268.074219 371.570312 266.765625 377.941406 264.515625 384.015625 C 264.171875 384.066406 263.816406 384.132812 263.453125 384.226562 " fill-opacity="1" fill-rule="nonzero"/><path fill="#ceeba6" d="M 240.492188 399.625 C 241.132812 398.488281 242.664062 397.1875 244.050781 396.875 C 239.90625 395.203125 235.765625 393.523438 231.617188 391.847656 C 230.269531 391.304688 228.855469 390.667969 228.917969 389.207031 C 228.980469 387.75 231.398438 385.261719 233.394531 385.035156 C 232.222656 383.195312 229.605469 382.421875 227.28125 381.46875 C 224.953125 380.519531 222.789062 379.230469 222.785156 376.753906 C 222.785156 375.324219 223.789062 373.40625 225.382812 371.730469 L 227.285156 370.066406 C 228.023438 369.535156 228.824219 369.074219 229.671875 368.722656 C 229.574219 368.5625 229.472656 368.402344 229.363281 368.25 L 236.636719 361.902344 C 236.828125 362.105469 237.019531 362.3125 237.207031 362.519531 C 246.488281 372.761719 252.519531 385.292969 255.070312 399.609375 L 240.492188 399.625 M 257.007812 399.605469 C 256.972656 399.441406 256.933594 399.273438 256.898438 399.113281 C 253.773438 384.605469 247.023438 371.886719 236.703125 361.847656 L 243.714844 355.726562 C 243.992188 356.882812 243.960938 358.136719 243.542969 359.464844 C 244.839844 358.074219 246.566406 357.511719 248.085938 357.511719 C 249.429688 357.511719 250.617188 357.949219 251.199219 358.648438 C 252.519531 360.222656 253.023438 362.351562 252.710938 364.792969 C 252.480469 366.640625 251.78125 368.667969 250.628906 370.773438 C 252.875 369.210938 255.398438 368.472656 257.410156 368.472656 C 258.425781 368.472656 259.3125 368.660156 259.960938 369.027344 C 261.910156 370.121094 262.21875 372.421875 262.085938 374.804688 C 261.875 378.472656 260.734375 382.535156 258.726562 386.769531 C 260.09375 385.5 261.828125 384.640625 263.453125 384.226562 C 263.816406 384.132812 264.171875 384.066406 264.515625 384.015625 C 264.886719 383.96875 265.238281 383.941406 265.574219 383.941406 C 266.664062 383.941406 267.558594 384.207031 268.058594 384.753906 C 269.527344 386.34375 268.398438 389.472656 266.417969 392.421875 C 265.851562 393.269531 265.25 394.085938 264.617188 394.867188 C 264.589844 394.902344 264.5625 394.9375 264.535156 394.96875 C 263.132812 396.691406 261.59375 398.246094 259.980469 399.605469 L 257.007812 399.605469 " fill-opacity="1" fill-rule="nonzero"/><path fill="#ffffff" d="M 255.070312 399.609375 C 252.519531 385.292969 246.488281 372.761719 237.207031 362.519531 C 237.019531 362.3125 236.828125 362.105469 236.636719 361.902344 L 236.703125 361.847656 C 247.023438 371.886719 253.773438 384.605469 256.898438 399.113281 C 256.933594 399.273438 256.972656 399.441406 257.007812 399.605469 L 255.070312 399.609375 " fill-opacity="1" fill-rule="nonzero"/><path fill="#ceeba6" d="M 307 367.683594 C 306.570312 366.996094 306.214844 366.234375 305.976562 365.34375 C 305.515625 363.675781 307.324219 359.007812 310.167969 357.207031 C 311.234375 356.515625 312.609375 356.195312 314.078125 356.195312 C 314.402344 356.195312 314.738281 356.210938 315.070312 356.238281 L 307 367.683594 " fill-opacity="1" fill-rule="nonzero"/><path fill="#845131" d="M 520.855469 228.140625 L 4.839844 228.140625 L 4.839844 221.410156 L 520.855469 221.410156 L 520.855469 228.140625 " fill-opacity="1" fill-rule="nonzero"/><g clip-path="url(#78239cefa7)"><path fill="#845131" d="M 426.890625 131.253906 L 91.765625 131.253906 L 91.9375 131.085938 L 95.132812 127.886719 L 96.695312 126.328125 L 98.5 124.527344 L 420.15625 124.527344 L 426.890625 131.253906 " fill-opacity="1" fill-rule="nonzero"/></g><path fill="#845131" d="M 472.707031 172.167969 L 137.929688 172.167969 L 140.71875 167.875 L 465.980469 167.875 L 472.707031 172.167969 " fill-opacity="1" fill-rule="nonzero"/><path fill="#845131" d="M 1.472656 413.503906 L 1.472656 221.410156 L 8.207031 221.410156 L 8.207031 413.503906 L 1.472656 413.503906 " fill-opacity="1" fill-rule="nonzero"/><path fill="#845131" d="M 514.125 413.503906 L 514.125 221.410156 L 520.855469 221.410156 L 520.855469 413.503906 L 514.125 413.503906 " fill-opacity="1" fill-rule="nonzero"/><path fill="#845131" d="M 188.863281 413.503906 L 188.863281 221.410156 L 195.589844 221.410156 L 195.589844 413.503906 L 188.863281 413.503906 " fill-opacity="1" fill-rule="nonzero"/><path fill="#845131" d="M 106.484375 126.054688 L 103.292969 129.25 L 6.234375 226.269531 L 1.472656 221.515625 L 93.773438 129.25 L 96.96875 126.054688 " fill-opacity="1" fill-rule="nonzero"/><g clip-path="url(#eccb88efc1)"><path fill="#845131" d="M 195.589844 221.515625 L 190.832031 226.269531 L 93.773438 129.25 L 98.53125 124.492188 L 103.292969 129.25 L 103.464844 129.417969 L 195.589844 221.515625 " fill-opacity="1" fill-rule="nonzero"/></g><path fill="#845131" d="M 208.519531 126.054688 L 211.882812 129.417969 L 304.011719 221.515625 L 299.253906 226.269531 L 202.363281 129.417969 L 199 126.054688 " fill-opacity="1" fill-rule="nonzero"/><path fill="#845131" d="M 199 126.054688 L 202.363281 129.417969 L 299.253906 226.269531 L 304.011719 221.515625 L 211.882812 129.417969 L 208.519531 126.054688 L 199 126.054688 " fill-opacity="1" fill-rule="nonzero"/><path fill="#845131" d="M 316.984375 126.054688 L 320.347656 129.417969 L 412.476562 221.515625 L 407.71875 226.269531 L 307.460938 126.054688 " fill-opacity="1" fill-rule="nonzero"/><g clip-path="url(#759891c6b7)"><path fill="#845131" d="M 520.855469 221.515625 L 516.09375 226.269531 L 414.328125 124.539062 L 423.84375 124.539062 L 520.855469 221.515625 " fill-opacity="1" fill-rule="nonzero"/></g><path fill="#845131" d="M 297.285156 413.503906 L 297.285156 221.410156 L 304.011719 221.410156 L 304.011719 413.503906 L 297.285156 413.503906 " fill-opacity="1" fill-rule="nonzero"/><path fill="#845131" d="M 405.703125 413.503906 L 405.703125 221.410156 L 412.433594 221.410156 L 412.433594 413.503906 L 405.703125 413.503906 " fill-opacity="1" fill-rule="nonzero"/><path fill="#845131" d="M 4.839844 413.503906 L 520.851562 413.503906 L 520.851562 399.679688 L 4.839844 399.679688 Z M 4.839844 413.503906 " fill-opacity="1" fill-rule="nonzero"/><path fill="#845131" d="M 59.53125 401.921875 L 52.804688 401.921875 L 52.804688 251.308594 L 59.53125 251.308594 L 59.53125 401.921875 " fill-opacity="1" fill-rule="nonzero"/><path fill="#845131" d="M 134.40625 401.921875 L 127.679688 401.921875 L 127.679688 251.308594 L 134.40625 251.308594 L 134.40625 401.921875 " fill-opacity="1" fill-rule="nonzero"/><path fill="#845131" d="M 52.804688 259.355469 L 52.804688 251.308594 L 134.40625 251.308594 L 134.40625 259.355469 L 52.804688 259.355469 " fill-opacity="1" fill-rule="nonzero"/><path fill="#845131" d="M 131.042969 330.164062 L 113.339844 330.164062 L 113.339844 321.945312 L 131.042969 321.945312 L 131.042969 330.164062 " fill-opacity="1" fill-rule="nonzero"/><path fill="#2b9740" d="M 375.53125 401.28125 L 364.84375 338.78125 L 367.160156 338.382812 L 377.851562 400.882812 L 375.53125 401.28125 " fill-opacity="1" fill-rule="nonzero"/><path fill="#2b9740" d="M 352.5 329.101562 C 352.5 329.101562 360.132812 344.703125 366.992188 340.964844 C 366.992188 340.964844 370.253906 332.125 352.5 329.101562 " fill-opacity="1" fill-rule="nonzero"/><path fill="#2b9740" d="M 352.058594 340.898438 C 352.058594 340.898438 361.433594 355.515625 367.816406 351.015625 C 367.816406 351.015625 370.042969 341.851562 352.058594 340.898438 " fill-opacity="1" fill-rule="nonzero"/><path fill="#2b9740" d="M 353.511719 352.421875 C 353.511719 352.421875 362.882812 367.046875 369.269531 362.539062 C 369.269531 362.539062 371.496094 353.382812 353.511719 352.421875 " fill-opacity="1" fill-rule="nonzero"/><path fill="#2b9740" d="M 356.566406 366.21875 C 356.566406 366.21875 365.945312 380.839844 372.328125 376.335938 C 372.328125 376.335938 374.550781 367.179688 356.566406 366.21875 " fill-opacity="1" fill-rule="nonzero"/><path fill="#2b9740" d="M 370.167969 321.957031 C 370.167969 321.957031 360.074219 336.101562 366.632812 340.347656 C 366.632812 340.347656 375.964844 339.007812 370.167969 321.957031 " fill-opacity="1" fill-rule="nonzero"/><path fill="#2b9740" d="M 375.777344 342.980469 C 375.777344 342.980469 363.960938 355.71875 369.921875 360.769531 C 369.921875 360.769531 379.347656 360.625 375.777344 342.980469 " fill-opacity="1" fill-rule="nonzero"/><path fill="#2b9740" d="M 378.320312 355.816406 C 378.320312 355.816406 366.5 368.550781 372.464844 373.597656 C 372.464844 373.597656 381.894531 373.460938 378.320312 355.816406 " fill-opacity="1" fill-rule="nonzero"/><path fill="#2b9740" d="M 375.140625 332.652344 C 375.140625 332.652344 363.328125 345.386719 369.285156 350.441406 C 369.285156 350.441406 378.714844 350.296875 375.140625 332.652344 " fill-opacity="1" fill-rule="nonzero"/><path fill="#53bf3d" d="M 378.453125 401.566406 L 376.125 401.207031 L 385.359375 341.414062 L 401.988281 318.210938 L 403.902344 319.582031 L 387.601562 342.328125 L 378.453125 401.566406 " fill-opacity="1" fill-rule="nonzero"/><path fill="#53bf3d" d="M 409.320312 336.707031 C 409.320312 336.707031 393.671875 329.144531 390.59375 336.320312 C 390.59375 336.320312 393.488281 345.292969 409.320312 336.707031 " fill-opacity="1" fill-rule="nonzero"/><path fill="#53bf3d" d="M 415.117188 329.632812 C 415.117188 329.632812 399.476562 322.070312 396.390625 329.253906 C 396.390625 329.253906 399.289062 338.222656 415.117188 329.632812 " fill-opacity="1" fill-rule="nonzero"/><path fill="#53bf3d" d="M 420.554688 322.070312 C 420.554688 322.070312 404.914062 314.515625 401.832031 321.691406 C 401.832031 321.691406 404.726562 330.660156 420.554688 322.070312 " fill-opacity="1" fill-rule="nonzero"/><path fill="#53bf3d" d="M 416.476562 307.4375 C 416.476562 307.4375 399.84375 312.457031 402.433594 319.828125 C 402.433594 319.828125 410.636719 324.472656 416.476562 307.4375 " fill-opacity="1" fill-rule="nonzero"/><path fill="#53bf3d" d="M 397.90625 303.457031 C 397.90625 303.457031 392.925781 320.097656 400.507812 322 C 400.507812 322 408.902344 317.714844 397.90625 303.457031 " fill-opacity="1" fill-rule="nonzero"/><path fill="#53bf3d" d="M 392.738281 311.136719 C 392.738281 311.136719 387.765625 327.777344 395.34375 329.675781 C 395.34375 329.675781 403.742188 325.390625 392.738281 311.136719 " fill-opacity="1" fill-rule="nonzero"/><path fill="#53bf3d" d="M 384.992188 318.59375 C 384.992188 318.59375 383.019531 335.851562 390.816406 336.390625 C 390.816406 336.390625 398.328125 330.695312 384.992188 318.59375 " fill-opacity="1" fill-rule="nonzero"/><path fill="#53bf3d" d="M 374.269531 330.367188 C 374.269531 330.367188 378.75 347.148438 386.203125 344.800781 C 386.203125 344.800781 391.109375 336.75 374.269531 330.367188 " fill-opacity="1" fill-rule="nonzero"/><path fill="#53bf3d" d="M 369.925781 342.164062 C 369.925781 342.164062 377.558594 357.773438 384.417969 354.03125 C 384.417969 354.03125 387.683594 345.191406 369.925781 342.164062 " fill-opacity="1" fill-rule="nonzero"/><path fill="#53bf3d" d="M 403.964844 341.378906 C 403.964844 341.378906 387.070312 337.316406 385.582031 344.980469 C 385.582031 344.980469 390.316406 353.128906 403.964844 341.378906 " fill-opacity="1" fill-rule="nonzero"/><path fill="#53bf3d" d="M 403.113281 354.695312 C 403.113281 354.695312 387.597656 346.875 384.394531 353.996094 C 384.394531 353.996094 387.132812 363.011719 403.113281 354.695312 " fill-opacity="1" fill-rule="nonzero"/><path fill="#53bf3d" d="M 461.832031 396.765625 L 459.519531 396.257812 C 459.773438 395.082031 465.964844 367.398438 478.046875 360.574219 L 479.210938 362.628906 C 468.042969 368.945312 461.890625 396.484375 461.832031 396.765625 " fill-opacity="1" fill-rule="nonzero"/><path fill="#53bf3d" d="M 455.015625 399.300781 L 452.707031 398.769531 C 453.160156 396.800781 463.835938 350.375 470.800781 338.761719 L 472.835938 339.980469 C 466.058594 351.269531 455.125 398.816406 455.015625 399.300781 " fill-opacity="1" fill-rule="nonzero"/><path fill="#53bf3d" d="M 468.617188 402.46875 C 468.570312 402.378906 463.5 393.304688 459.125 383.554688 C 456.542969 377.796875 454.703125 372.929688 453.648438 369.078125 C 452.226562 363.878906 452.230469 360.46875 453.664062 358.660156 L 455.523438 360.125 C 454.695312 361.171875 453.597656 365.457031 461.28125 382.570312 C 465.609375 392.226562 470.636719 401.222656 470.683594 401.3125 L 468.617188 402.46875 " fill-opacity="1" fill-rule="nonzero"/><path fill="#53bf3d" d="M 450.003906 402.101562 L 447.667969 401.675781 C 447.71875 401.410156 452.359375 375.25 438.664062 369.195312 L 439.625 367.03125 C 446.066406 369.878906 449.894531 376.90625 450.691406 387.351562 C 451.277344 395.050781 450.050781 401.824219 450.003906 402.101562 " fill-opacity="1" fill-rule="nonzero"/><path fill="#53bf3d" d="M 509.230469 353.300781 C 509.230469 353.300781 470.585938 347.644531 476.667969 365.019531 C 482.746094 382.394531 495.199219 355.09375 509.230469 353.300781 " fill-opacity="1" fill-rule="nonzero"/><path fill="#53bf3d" d="M 441.054688 331.898438 C 441.054688 331.898438 436.003906 370.617188 453.285156 364.265625 C 470.570312 357.921875 443.0625 345.898438 441.054688 331.898438 " fill-opacity="1" fill-rule="nonzero"/><path fill="#2b9740" d="M 408.285156 371.949219 C 408.285156 371.949219 440.121094 349.335938 442.617188 367.578125 C 445.109375 385.8125 421.59375 367.164062 408.285156 371.949219 " fill-opacity="1" fill-rule="nonzero"/><path fill="#2b9740" d="M 455.164062 306.148438 C 455.164062 306.148438 490.78125 339.84375 468.917969 347.355469 C 447.058594 354.867188 464.308594 321.367188 455.164062 306.148438 " fill-opacity="1" fill-rule="nonzero"/><g clip-path="url(#06aa744ffe)"><path fill="#6f4022" d="M 482.515625 390.773438 L 478.195312 426.691406 L 441.574219 426.691406 L 437.253906 390.773438 L 482.515625 390.773438 " fill-opacity="1" fill-rule="nonzero"/></g><g clip-path="url(#b2ab44df7a)"><g clip-path="url(#3580d736e4)"><g clip-path="url(#526937598d)"><path fill="url(#77c4f42ac2)" d="M 441.574219 390.773438 L 441.574219 426.691406 L 482.515625 426.691406 L 482.515625 390.773438 Z M 441.574219 390.773438 " fill-rule="nonzero"/></g></g></g><path fill="#886145" d="M 444.757812 410.964844 C 443.074219 410.964844 441.710938 407.164062 441.710938 402.46875 C 441.710938 397.773438 443.074219 393.972656 444.757812 393.972656 C 446.441406 393.972656 447.800781 397.773438 447.800781 402.46875 C 447.800781 407.164062 446.441406 410.964844 444.757812 410.964844 " fill-opacity="1" fill-rule="nonzero"/><g clip-path="url(#4b1ccd3b03)"><path fill="#53bf3d" d="M 569.496094 380.8125 C 566.691406 383.046875 563.019531 384.847656 558.679688 386.121094 C 562.621094 386.53125 566.210938 389.570312 565.964844 391.683594 C 565.71875 393.800781 562.738281 395 559.351562 395.46875 C 555.070312 396.050781 550.78125 395.742188 547.054688 394.753906 C 546.753906 394.675781 546.460938 394.585938 546.171875 394.5 C 545.871094 394.410156 545.578125 394.316406 545.289062 394.214844 C 539.230469 392.140625 535.132812 388.152344 535.890625 383.3125 C 536.027344 382.425781 536.425781 381.550781 537.613281 381.144531 C 538.796875 380.734375 540.96875 380.984375 542.175781 381.886719 C 540.8125 377.738281 539.449219 373.597656 538.085938 369.457031 C 537.640625 368.109375 537.230469 366.652344 538.332031 365.753906 C 539.433594 364.847656 542.753906 365.015625 544.164062 366.335938 C 544.773438 364.277344 543.703125 361.847656 542.953125 359.515625 C 542.195312 357.179688 541.785156 354.75 543.585938 353.136719 C 545.386719 351.523438 550.152344 351.171875 553.726562 352.988281 C 555.027344 348.785156 554.007812 344.96875 556.503906 341.167969 C 557.585938 339.515625 562.867188 337.527344 566.457031 338.605469 C 572.726562 340.40625 576.929688 353.65625 569.121094 357.183594 C 572.554688 357.277344 574.792969 360.40625 574.484375 362.292969 C 573.917969 365.796875 570.519531 368.554688 565.292969 369.757812 C 569.117188 370.714844 571.96875 373.347656 572.382812 375.492188 C 572.800781 377.640625 571.316406 379.367188 569.496094 380.8125 " fill-opacity="1" fill-rule="nonzero"/></g><path fill="#ffffff" d="M 548.546875 392.800781 C 548.105469 393.410156 547.644531 394.011719 547.183594 394.613281 L 547.054688 394.753906 C 546.753906 394.675781 546.460938 394.585938 546.171875 394.5 C 545.871094 394.410156 545.578125 394.316406 545.289062 394.214844 L 545.292969 394.128906 C 545.320312 393.960938 545.386719 393.804688 545.492188 393.683594 C 555.261719 382.027344 561.167969 368.765625 562.949219 354.503906 C 563.035156 353.792969 563.097656 353.066406 563.195312 352.363281 C 562.550781 366.992188 557.445312 380.699219 548.546875 392.800781 " fill-opacity="1" fill-rule="nonzero"/><path fill="#2b9740" d="M 553.300781 361.902344 C 553.0625 366.039062 551.78125 370.617188 549.515625 375.386719 C 552.941406 372.21875 558.382812 371.320312 560.035156 373.117188 C 561.691406 374.90625 560.414062 378.429688 558.1875 381.757812 C 555.367188 385.96875 551.761719 389.519531 548 392.0625 C 547.699219 392.265625 547.394531 392.460938 547.089844 392.652344 C 546.78125 392.851562 546.46875 393.039062 546.15625 393.21875 C 539.640625 397.007812 532.96875 397.652344 529.339844 393.375 C 528.675781 392.59375 528.222656 391.585938 528.789062 390.238281 C 529.355469 388.890625 531.265625 387.164062 532.980469 386.769531 C 528.3125 384.886719 523.640625 382.996094 518.96875 381.113281 C 517.445312 380.5 515.851562 379.777344 515.925781 378.132812 C 515.996094 376.488281 518.726562 373.6875 520.96875 373.433594 C 519.652344 371.359375 516.699219 370.488281 514.082031 369.417969 C 511.457031 368.34375 509.019531 366.886719 509.019531 364.097656 C 509.011719 361.308594 512.40625 356.855469 516.777344 355.054688 C 514.121094 350.777344 510 348.832031 508.628906 343.800781 C 508.027344 341.609375 510.40625 335.480469 514.140625 333.113281 C 520.582031 328.9375 535.40625 335.113281 532.410156 344.621094 C 535.160156 341.664062 539.628906 342.023438 541.039062 343.699219 C 543.652344 346.8125 543.410156 351.867188 540.394531 357.359375 C 544.203125 354.710938 548.714844 354.15625 550.910156 355.394531 C 553.109375 356.628906 553.453125 359.21875 553.300781 361.902344 " fill-opacity="1" fill-rule="nonzero"/><path fill="#ffffff" d="M 547.460938 389.292969 C 547.640625 390.140625 547.8125 390.992188 547.976562 391.847656 L 548 392.0625 C 547.699219 392.265625 547.394531 392.460938 547.089844 392.652344 C 546.78125 392.851562 546.46875 393.039062 546.15625 393.21875 L 546.085938 393.152344 C 545.957031 393.007812 545.875 392.824219 545.851562 392.644531 C 543.292969 375.347656 536.324219 360.261719 525.269531 348.058594 C 524.714844 347.453125 524.128906 346.855469 523.59375 346.25 C 535.851562 357.71875 543.828125 372.441406 547.460938 389.292969 " fill-opacity="1" fill-rule="nonzero"/><g clip-path="url(#8dfdbe4250)"><path fill="#6f4022" d="M 569.109375 390.773438 L 564.789062 426.691406 L 528.167969 426.691406 L 523.847656 390.773438 L 569.109375 390.773438 " fill-opacity="1" fill-rule="nonzero"/></g><g clip-path="url(#4b640d37f4)"><g clip-path="url(#8c77e1829f)"><g clip-path="url(#977dc16647)"><path fill="url(#ab3f418c6f)" d="M 528.167969 390.773438 L 528.167969 426.691406 L 569.109375 426.691406 L 569.109375 390.773438 Z M 528.167969 390.773438 " fill-rule="nonzero"/></g></g></g><path fill="#886145" d="M 531.359375 410.964844 C 529.675781 410.964844 528.3125 407.164062 528.3125 402.46875 C 528.3125 397.773438 529.675781 393.972656 531.359375 393.972656 C 533.035156 393.972656 534.402344 397.773438 534.402344 402.46875 C 534.402344 407.164062 533.035156 410.964844 531.359375 410.964844 " fill-opacity="1" fill-rule="nonzero"/><g clip-path="url(#6da2b9ac02)"><path fill="#6f4022" d="M 398.378906 391 L 394.058594 426.921875 L 357.4375 426.921875 L 353.117188 391 L 398.378906 391 " fill-opacity="1" fill-rule="nonzero"/></g><g clip-path="url(#bb032c92bc)"><g clip-path="url(#ec4c263c8a)"><g clip-path="url(#1496a2dd71)"><path fill="url(#581dd896de)" d="M 357.4375 391 L 357.4375 426.921875 L 398.378906 426.921875 L 398.378906 391 Z M 357.4375 391 " fill-rule="nonzero"/></g></g></g><path fill="#886145" d="M 360.621094 411.191406 C 358.9375 411.191406 357.574219 407.386719 357.574219 402.691406 C 357.574219 398 358.9375 394.199219 360.621094 394.199219 C 362.304688 394.199219 363.667969 398 363.667969 402.691406 C 363.667969 407.386719 362.304688 411.191406 360.621094 411.191406 " fill-opacity="1" fill-rule="nonzero"/><g clip-path="url(#e1b8f47497)"><path fill="#000000" d="M 569.679688 22.886719 L 495.558594 22.886719 C 495.1875 22.886719 494.816406 22.851562 494.449219 22.777344 C 494.082031 22.703125 493.722656 22.597656 493.378906 22.453125 C 493.03125 22.308594 492.703125 22.132812 492.394531 21.925781 C 492.082031 21.714844 491.792969 21.480469 491.527344 21.214844 C 491.265625 20.949219 491.027344 20.660156 490.820312 20.347656 C 490.613281 20.035156 490.4375 19.707031 490.292969 19.359375 C 490.148438 19.015625 490.042969 18.65625 489.96875 18.289062 C 489.894531 17.921875 489.859375 17.550781 489.859375 17.175781 C 489.859375 16.800781 489.894531 16.429688 489.96875 16.058594 C 490.042969 15.691406 490.148438 15.335938 490.292969 14.988281 C 490.4375 14.640625 490.613281 14.3125 490.820312 14 C 491.027344 13.6875 491.265625 13.398438 491.527344 13.136719 C 491.792969 12.871094 492.082031 12.632812 492.394531 12.425781 C 492.703125 12.214844 493.03125 12.039062 493.378906 11.898438 C 493.722656 11.753906 494.082031 11.644531 494.449219 11.570312 C 494.816406 11.5 495.1875 11.460938 495.558594 11.460938 L 569.679688 11.460938 C 570.054688 11.460938 570.425781 11.5 570.792969 11.570312 C 571.160156 11.644531 571.515625 11.753906 571.863281 11.898438 C 572.207031 12.039062 572.535156 12.214844 572.847656 12.425781 C 573.160156 12.632812 573.449219 12.871094 573.710938 13.136719 C 573.976562 13.398438 574.214844 13.6875 574.421875 14 C 574.628906 14.3125 574.804688 14.640625 574.949219 14.988281 C 575.089844 15.335938 575.199219 15.691406 575.273438 16.058594 C 575.34375 16.429688 575.382812 16.800781 575.382812 17.175781 C 575.382812 17.550781 575.34375 17.921875 575.273438 18.289062 C 575.199219 18.65625 575.089844 19.015625 574.949219 19.359375 C 574.804688 19.707031 574.628906 20.035156 574.421875 20.347656 C 574.214844 20.660156 573.976562 20.949219 573.710938 21.214844 C 573.449219 21.480469 573.160156 21.714844 572.847656 21.925781 C 572.535156 22.132812 572.207031 22.308594 571.863281 22.453125 C 571.515625 22.597656 571.160156 22.703125 570.792969 22.777344 C 570.425781 22.851562 570.054688 22.886719 569.679688 22.886719 Z M 569.679688 22.886719 " fill-opacity="1" fill-rule="nonzero"/></g><g clip-path="url(#bc07aae550)"><path fill="#000000" d="M 467.050781 0.0351562 C 466.175781 0.0390625 465.304688 0.109375 464.441406 0.246094 C 463.574219 0.386719 462.726562 0.589844 461.890625 0.855469 C 461.058594 1.125 460.25 1.457031 459.464844 1.847656 C 458.683594 2.242188 457.933594 2.691406 457.21875 3.199219 C 456.503906 3.710938 455.832031 4.269531 455.207031 4.882812 C 454.578125 5.492188 454 6.148438 453.472656 6.847656 C 452.941406 7.550781 452.472656 8.289062 452.058594 9.058594 C 451.640625 9.832031 451.289062 10.632812 450.996094 11.460938 L 432.84375 11.460938 C 432.46875 11.460938 432.097656 11.5 431.730469 11.570312 C 431.363281 11.644531 431.007812 11.753906 430.660156 11.898438 C 430.316406 12.039062 429.988281 12.214844 429.675781 12.425781 C 429.363281 12.632812 429.078125 12.871094 428.8125 13.136719 C 428.546875 13.398438 428.3125 13.6875 428.101562 14 C 427.894531 14.3125 427.71875 14.640625 427.574219 14.988281 C 427.433594 15.335938 427.324219 15.691406 427.25 16.058594 C 427.179688 16.429688 427.140625 16.800781 427.140625 17.175781 C 427.140625 17.550781 427.179688 17.921875 427.25 18.289062 C 427.324219 18.65625 427.433594 19.015625 427.574219 19.359375 C 427.71875 19.707031 427.894531 20.035156 428.101562 20.347656 C 428.3125 20.660156 428.546875 20.949219 428.8125 21.214844 C 429.078125 21.480469 429.363281 21.714844 429.675781 21.925781 C 429.988281 22.132812 430.316406 22.308594 430.660156 22.453125 C 431.007812 22.597656 431.363281 22.703125 431.730469 22.777344 C 432.097656 22.851562 432.46875 22.886719 432.84375 22.886719 L 450.996094 22.886719 C 451.347656 23.871094 451.78125 24.8125 452.300781 25.714844 C 452.820312 26.613281 453.417969 27.460938 454.09375 28.253906 C 454.769531 29.046875 455.511719 29.773438 456.316406 30.429688 C 457.125 31.085938 457.984375 31.664062 458.898438 32.164062 C 459.808594 32.664062 460.761719 33.074219 461.746094 33.398438 C 462.734375 33.726562 463.746094 33.957031 464.773438 34.101562 C 465.804688 34.242188 466.839844 34.285156 467.878906 34.238281 C 468.917969 34.191406 469.941406 34.046875 470.953125 33.8125 C 471.96875 33.574219 472.949219 33.25 473.902344 32.832031 C 474.855469 32.417969 475.765625 31.917969 476.628906 31.335938 C 477.488281 30.753906 478.292969 30.097656 479.035156 29.367188 C 479.777344 28.636719 480.449219 27.847656 481.046875 26.996094 C 481.644531 26.144531 482.160156 25.246094 482.597656 24.296875 C 483.03125 23.351562 483.375 22.375 483.632812 21.363281 C 483.886719 20.355469 484.050781 19.328125 484.121094 18.289062 C 484.191406 17.25 484.164062 16.214844 484.046875 15.179688 C 483.925781 14.144531 483.714844 13.128906 483.410156 12.132812 C 483.105469 11.136719 482.710938 10.175781 482.234375 9.25 C 481.753906 8.328125 481.195312 7.453125 480.554688 6.632812 C 479.914062 5.808594 479.207031 5.050781 478.429688 4.359375 C 477.652344 3.667969 476.820312 3.050781 475.929688 2.511719 C 475.042969 1.972656 474.113281 1.515625 473.140625 1.148438 C 472.167969 0.777344 471.167969 0.5 470.148438 0.3125 C 469.125 0.125 468.09375 0.0351562 467.050781 0.0351562 Z M 467.050781 22.886719 C 466.679688 22.886719 466.308594 22.851562 465.941406 22.777344 C 465.574219 22.703125 465.214844 22.597656 464.871094 22.453125 C 464.523438 22.308594 464.195312 22.132812 463.886719 21.925781 C 463.574219 21.714844 463.285156 21.480469 463.019531 21.214844 C 462.757812 20.949219 462.519531 20.660156 462.3125 20.347656 C 462.105469 20.035156 461.929688 19.707031 461.785156 19.359375 C 461.640625 19.015625 461.535156 18.65625 461.460938 18.289062 C 461.386719 17.921875 461.351562 17.550781 461.351562 17.175781 C 461.351562 16.800781 461.386719 16.429688 461.460938 16.058594 C 461.535156 15.691406 461.640625 15.335938 461.785156 14.988281 C 461.929688 14.640625 462.105469 14.3125 462.3125 14 C 462.519531 13.6875 462.757812 13.398438 463.019531 13.136719 C 463.285156 12.871094 463.574219 12.632812 463.886719 12.425781 C 464.195312 12.214844 464.523438 12.039062 464.871094 11.898438 C 465.214844 11.753906 465.574219 11.644531 465.941406 11.570312 C 466.308594 11.5 466.679688 11.460938 467.050781 11.460938 C 467.425781 11.460938 467.796875 11.5 468.164062 11.570312 C 468.53125 11.644531 468.890625 11.753906 469.234375 11.898438 C 469.582031 12.039062 469.910156 12.214844 470.21875 12.425781 C 470.53125 12.632812 470.820312 12.871094 471.085938 13.136719 C 471.347656 13.398438 471.585938 13.6875 471.792969 14 C 472 14.3125 472.175781 14.640625 472.320312 14.988281 C 472.464844 15.335938 472.570312 15.691406 472.644531 16.058594 C 472.71875 16.429688 472.753906 16.800781 472.753906 17.175781 C 472.753906 17.550781 472.71875 17.921875 472.644531 18.289062 C 472.570312 18.65625 472.464844 19.015625 472.320312 19.359375 C 472.175781 19.707031 472 20.035156 471.792969 20.347656 C 471.585938 20.660156 471.347656 20.949219 471.085938 21.214844 C 470.820312 21.480469 470.53125 21.714844 470.21875 21.925781 C 469.910156 22.132812 469.582031 22.308594 469.234375 22.453125 C 468.890625 22.597656 468.53125 22.703125 468.164062 22.777344 C 467.796875 22.851562 467.425781 22.886719 467.050781 22.886719 Z M 467.050781 22.886719 " fill-opacity="1" fill-rule="nonzero"/></g><g clip-path="url(#3d8c135f0a)"><path fill="#000000" d="M 569.679688 62.878906 L 535.472656 62.878906 C 535.097656 62.878906 534.726562 62.84375 534.359375 62.769531 C 533.992188 62.695312 533.636719 62.589844 533.289062 62.445312 C 532.945312 62.300781 532.613281 62.125 532.304688 61.917969 C 531.992188 61.707031 531.703125 61.472656 531.441406 61.207031 C 531.175781 60.941406 530.9375 60.652344 530.730469 60.339844 C 530.523438 60.027344 530.347656 59.699219 530.203125 59.351562 C 530.058594 59.007812 529.953125 58.648438 529.878906 58.28125 C 529.804688 57.914062 529.769531 57.542969 529.769531 57.167969 C 529.769531 56.792969 529.804688 56.417969 529.878906 56.050781 C 529.953125 55.683594 530.058594 55.328125 530.203125 54.980469 C 530.347656 54.632812 530.523438 54.304688 530.730469 53.992188 C 530.9375 53.679688 531.175781 53.390625 531.441406 53.125 C 531.703125 52.863281 531.992188 52.625 532.304688 52.417969 C 532.613281 52.207031 532.945312 52.03125 533.289062 51.886719 C 533.636719 51.746094 533.992188 51.636719 534.359375 51.5625 C 534.726562 51.488281 535.097656 51.453125 535.472656 51.453125 L 569.679688 51.453125 C 570.054688 51.453125 570.425781 51.488281 570.792969 51.5625 C 571.160156 51.636719 571.515625 51.746094 571.863281 51.886719 C 572.207031 52.03125 572.535156 52.207031 572.847656 52.417969 C 573.160156 52.625 573.449219 52.863281 573.710938 53.125 C 573.976562 53.390625 574.214844 53.679688 574.421875 53.992188 C 574.628906 54.304688 574.804688 54.632812 574.949219 54.980469 C 575.089844 55.328125 575.199219 55.683594 575.273438 56.050781 C 575.34375 56.417969 575.382812 56.792969 575.382812 57.167969 C 575.382812 57.542969 575.34375 57.914062 575.273438 58.28125 C 575.199219 58.648438 575.089844 59.007812 574.949219 59.351562 C 574.804688 59.699219 574.628906 60.027344 574.421875 60.339844 C 574.214844 60.652344 573.976562 60.941406 573.710938 61.207031 C 573.449219 61.472656 573.160156 61.707031 572.847656 61.917969 C 572.535156 62.125 572.207031 62.300781 571.863281 62.445312 C 571.515625 62.589844 571.160156 62.695312 570.792969 62.769531 C 570.425781 62.84375 570.054688 62.878906 569.679688 62.878906 Z M 569.679688 62.878906 " fill-opacity="1" fill-rule="nonzero"/></g><g clip-path="url(#4acf5788c0)"><path fill="#000000" d="M 506.964844 40.027344 C 506.085938 40.03125 505.21875 40.101562 504.351562 40.238281 C 503.488281 40.375 502.636719 40.578125 501.800781 40.847656 C 500.96875 41.117188 500.160156 41.449219 499.375 41.839844 C 498.59375 42.234375 497.84375 42.683594 497.128906 43.191406 C 496.414062 43.699219 495.746094 44.261719 495.117188 44.871094 C 494.488281 45.484375 493.910156 46.140625 493.382812 46.839844 C 492.855469 47.542969 492.382812 48.277344 491.96875 49.050781 C 491.554688 49.824219 491.199219 50.625 490.90625 51.453125 L 432.84375 51.453125 C 432.46875 51.453125 432.097656 51.488281 431.730469 51.5625 C 431.363281 51.636719 431.007812 51.746094 430.660156 51.886719 C 430.316406 52.03125 429.988281 52.207031 429.675781 52.417969 C 429.363281 52.625 429.078125 52.863281 428.8125 53.125 C 428.546875 53.390625 428.3125 53.679688 428.101562 53.992188 C 427.894531 54.304688 427.71875 54.632812 427.574219 54.980469 C 427.433594 55.328125 427.324219 55.683594 427.25 56.050781 C 427.179688 56.417969 427.140625 56.792969 427.140625 57.167969 C 427.140625 57.542969 427.179688 57.914062 427.25 58.28125 C 427.324219 58.648438 427.433594 59.007812 427.574219 59.351562 C 427.71875 59.699219 427.894531 60.027344 428.101562 60.339844 C 428.3125 60.652344 428.546875 60.941406 428.8125 61.207031 C 429.078125 61.472656 429.363281 61.707031 429.675781 61.917969 C 429.988281 62.125 430.316406 62.300781 430.660156 62.445312 C 431.007812 62.589844 431.363281 62.695312 431.730469 62.769531 C 432.097656 62.84375 432.46875 62.878906 432.84375 62.878906 L 490.90625 62.878906 C 491.257812 63.859375 491.691406 64.800781 492.210938 65.703125 C 492.734375 66.605469 493.332031 67.453125 494.003906 68.246094 C 494.679688 69.039062 495.421875 69.761719 496.230469 70.421875 C 497.035156 71.078125 497.894531 71.65625 498.808594 72.15625 C 499.722656 72.652344 500.671875 73.066406 501.660156 73.390625 C 502.644531 73.71875 503.65625 73.949219 504.6875 74.089844 C 505.714844 74.230469 506.75 74.277344 507.789062 74.230469 C 508.828125 74.179688 509.851562 74.039062 510.867188 73.804688 C 511.878906 73.566406 512.863281 73.242188 513.816406 72.824219 C 514.769531 72.40625 515.675781 71.910156 516.539062 71.328125 C 517.398438 70.746094 518.203125 70.089844 518.945312 69.359375 C 519.6875 68.628906 520.359375 67.839844 520.957031 66.988281 C 521.554688 66.136719 522.070312 65.238281 522.507812 64.289062 C 522.941406 63.34375 523.285156 62.367188 523.542969 61.355469 C 523.800781 60.347656 523.960938 59.320312 524.03125 58.28125 C 524.101562 57.242188 524.078125 56.203125 523.957031 55.171875 C 523.835938 54.136719 523.625 53.121094 523.320312 52.125 C 523.015625 51.128906 522.625 50.167969 522.144531 49.242188 C 521.664062 48.320312 521.105469 47.445312 520.464844 46.625 C 519.828125 45.800781 519.117188 45.042969 518.339844 44.351562 C 517.566406 43.660156 516.730469 43.042969 515.84375 42.503906 C 514.953125 41.964844 514.023438 41.507812 513.050781 41.140625 C 512.078125 40.769531 511.082031 40.492188 510.058594 40.304688 C 509.035156 40.117188 508.003906 40.023438 506.964844 40.027344 Z M 506.964844 62.878906 C 506.589844 62.878906 506.21875 62.84375 505.851562 62.769531 C 505.484375 62.695312 505.128906 62.589844 504.78125 62.445312 C 504.4375 62.300781 504.105469 62.125 503.796875 61.917969 C 503.484375 61.707031 503.195312 61.472656 502.933594 61.207031 C 502.667969 60.941406 502.429688 60.652344 502.222656 60.339844 C 502.015625 60.027344 501.839844 59.699219 501.695312 59.351562 C 501.550781 59.007812 501.445312 58.648438 501.371094 58.28125 C 501.296875 57.914062 501.261719 57.542969 501.261719 57.167969 C 501.261719 56.792969 501.296875 56.417969 501.371094 56.050781 C 501.445312 55.683594 501.550781 55.328125 501.695312 54.980469 C 501.839844 54.632812 502.015625 54.304688 502.222656 53.992188 C 502.429688 53.679688 502.667969 53.390625 502.933594 53.125 C 503.195312 52.863281 503.484375 52.625 503.796875 52.417969 C 504.105469 52.207031 504.4375 52.03125 504.78125 51.886719 C 505.128906 51.746094 505.484375 51.636719 505.851562 51.5625 C 506.21875 51.488281 506.589844 51.453125 506.964844 51.453125 C 507.339844 51.453125 507.707031 51.488281 508.074219 51.5625 C 508.441406 51.636719 508.800781 51.746094 509.144531 51.886719 C 509.492188 52.03125 509.820312 52.207031 510.132812 52.417969 C 510.441406 52.625 510.730469 52.863281 510.996094 53.125 C 511.261719 53.390625 511.496094 53.679688 511.703125 53.992188 C 511.914062 54.304688 512.085938 54.632812 512.230469 54.980469 C 512.375 55.328125 512.484375 55.683594 512.554688 56.050781 C 512.628906 56.417969 512.664062 56.792969 512.664062 57.167969 C 512.664062 57.542969 512.628906 57.914062 512.554688 58.28125 C 512.484375 58.648438 512.375 59.007812 512.230469 59.351562 C 512.085938 59.699219 511.914062 60.027344 511.703125 60.339844 C 511.496094 60.652344 511.261719 60.941406 510.996094 61.207031 C 510.730469 61.472656 510.441406 61.707031 510.132812 61.917969 C 509.820312 62.125 509.492188 62.300781 509.144531 62.445312 C 508.800781 62.589844 508.441406 62.695312 508.074219 62.769531 C 507.707031 62.84375 507.339844 62.878906 506.964844 62.878906 Z M 506.964844 62.878906 " fill-opacity="1" fill-rule="nonzero"/></g><g clip-path="url(#bc68c1f406)"><path fill="#000000" d="M 569.679688 102.871094 L 512.664062 102.871094 C 512.289062 102.871094 511.921875 102.835938 511.554688 102.761719 C 511.1875 102.6875 510.828125 102.578125 510.484375 102.4375 C 510.136719 102.292969 509.808594 102.117188 509.496094 101.910156 C 509.1875 101.699219 508.898438 101.464844 508.632812 101.199219 C 508.367188 100.933594 508.132812 100.644531 507.925781 100.332031 C 507.714844 100.019531 507.539062 99.691406 507.398438 99.34375 C 507.253906 98.996094 507.144531 98.640625 507.074219 98.273438 C 507 97.90625 506.964844 97.53125 506.964844 97.15625 C 506.964844 96.78125 507 96.410156 507.074219 96.042969 C 507.144531 95.675781 507.253906 95.316406 507.398438 94.972656 C 507.539062 94.625 507.714844 94.296875 507.925781 93.984375 C 508.132812 93.671875 508.367188 93.382812 508.632812 93.117188 C 508.898438 92.851562 509.1875 92.617188 509.496094 92.40625 C 509.808594 92.199219 510.136719 92.023438 510.484375 91.878906 C 510.828125 91.734375 511.1875 91.628906 511.554688 91.554688 C 511.921875 91.480469 512.289062 91.445312 512.664062 91.445312 L 569.679688 91.445312 C 570.054688 91.445312 570.425781 91.480469 570.792969 91.554688 C 571.160156 91.628906 571.515625 91.734375 571.863281 91.878906 C 572.207031 92.023438 572.535156 92.199219 572.847656 92.40625 C 573.160156 92.617188 573.449219 92.851562 573.710938 93.117188 C 573.976562 93.382812 574.214844 93.671875 574.421875 93.984375 C 574.628906 94.296875 574.804688 94.625 574.949219 94.972656 C 575.089844 95.316406 575.199219 95.675781 575.273438 96.042969 C 575.34375 96.410156 575.382812 96.78125 575.382812 97.15625 C 575.382812 97.53125 575.34375 97.90625 575.273438 98.273438 C 575.199219 98.640625 575.089844 98.996094 574.949219 99.34375 C 574.804688 99.691406 574.628906 100.019531 574.421875 100.332031 C 574.214844 100.644531 573.976562 100.933594 573.710938 101.199219 C 573.449219 101.464844 573.160156 101.699219 572.847656 101.910156 C 572.535156 102.117188 572.207031 102.292969 571.863281 102.4375 C 571.515625 102.578125 571.160156 102.6875 570.792969 102.761719 C 570.425781 102.835938 570.054688 102.871094 569.679688 102.871094 Z M 569.679688 102.871094 " fill-opacity="1" fill-rule="nonzero"/></g><g clip-path="url(#36c6cca4c2)"><path fill="#000000" d="M 484.15625 80.019531 C 483.28125 80.023438 482.410156 80.09375 481.546875 80.230469 C 480.679688 80.367188 479.832031 80.570312 478.996094 80.839844 C 478.164062 81.109375 477.355469 81.4375 476.570312 81.832031 C 475.785156 82.226562 475.039062 82.675781 474.324219 83.183594 C 473.609375 83.691406 472.9375 84.253906 472.308594 84.863281 C 471.679688 85.476562 471.101562 86.132812 470.574219 86.832031 C 470.046875 87.535156 469.578125 88.269531 469.160156 89.042969 C 468.746094 89.816406 468.394531 90.617188 468.101562 91.445312 L 432.84375 91.445312 C 432.46875 91.445312 432.097656 91.480469 431.730469 91.554688 C 431.363281 91.628906 431.007812 91.734375 430.660156 91.878906 C 430.316406 92.023438 429.988281 92.199219 429.675781 92.40625 C 429.363281 92.617188 429.078125 92.851562 428.8125 93.117188 C 428.546875 93.382812 428.3125 93.671875 428.101562 93.984375 C 427.894531 94.296875 427.71875 94.625 427.574219 94.972656 C 427.433594 95.316406 427.324219 95.675781 427.25 96.042969 C 427.179688 96.410156 427.140625 96.78125 427.140625 97.15625 C 427.140625 97.53125 427.179688 97.90625 427.25 98.273438 C 427.324219 98.640625 427.433594 98.996094 427.574219 99.34375 C 427.71875 99.691406 427.894531 100.019531 428.101562 100.332031 C 428.3125 100.644531 428.546875 100.933594 428.8125 101.199219 C 429.078125 101.464844 429.363281 101.699219 429.675781 101.910156 C 429.988281 102.117188 430.316406 102.292969 430.660156 102.4375 C 431.007812 102.578125 431.363281 102.6875 431.730469 102.761719 C 432.097656 102.835938 432.46875 102.871094 432.84375 102.871094 L 468.101562 102.871094 C 468.449219 103.851562 468.886719 104.792969 469.40625 105.695312 C 469.925781 106.597656 470.523438 107.445312 471.199219 108.238281 C 471.875 109.03125 472.617188 109.753906 473.421875 110.410156 C 474.230469 111.070312 475.089844 111.648438 476.003906 112.144531 C 476.914062 112.644531 477.863281 113.058594 478.851562 113.382812 C 479.839844 113.710938 480.847656 113.941406 481.878906 114.082031 C 482.910156 114.222656 483.945312 114.269531 484.984375 114.222656 C 486.019531 114.171875 487.046875 114.03125 488.058594 113.792969 C 489.074219 113.558594 490.054688 113.230469 491.007812 112.816406 C 491.960938 112.398438 492.871094 111.902344 493.730469 111.316406 C 494.59375 110.734375 495.394531 110.082031 496.140625 109.351562 C 496.882812 108.621094 497.550781 107.832031 498.152344 106.980469 C 498.75 106.128906 499.265625 105.226562 499.699219 104.28125 C 500.136719 103.335938 500.480469 102.355469 500.738281 101.347656 C 500.992188 100.335938 501.15625 99.3125 501.226562 98.273438 C 501.296875 97.234375 501.269531 96.195312 501.152344 95.160156 C 501.03125 94.125 500.820312 93.109375 500.515625 92.113281 C 500.210938 91.117188 499.816406 90.160156 499.335938 89.234375 C 498.859375 88.308594 498.296875 87.4375 497.660156 86.613281 C 497.019531 85.792969 496.3125 85.035156 495.535156 84.34375 C 494.757812 83.652344 493.925781 83.035156 493.035156 82.496094 C 492.148438 81.957031 491.214844 81.5 490.242188 81.132812 C 489.273438 80.761719 488.273438 80.484375 487.25 80.296875 C 486.226562 80.109375 485.195312 80.015625 484.15625 80.019531 Z M 484.15625 102.871094 C 483.78125 102.871094 483.414062 102.835938 483.046875 102.761719 C 482.679688 102.6875 482.320312 102.578125 481.976562 102.4375 C 481.628906 102.292969 481.300781 102.117188 480.988281 101.910156 C 480.679688 101.699219 480.390625 101.464844 480.125 101.199219 C 479.859375 100.933594 479.625 100.644531 479.417969 100.332031 C 479.207031 100.019531 479.03125 99.691406 478.890625 99.34375 C 478.746094 98.996094 478.636719 98.640625 478.566406 98.273438 C 478.492188 97.90625 478.457031 97.53125 478.457031 97.15625 C 478.457031 96.78125 478.492188 96.410156 478.566406 96.042969 C 478.636719 95.675781 478.746094 95.316406 478.890625 94.972656 C 479.03125 94.625 479.207031 94.296875 479.417969 93.984375 C 479.625 93.671875 479.859375 93.382812 480.125 93.117188 C 480.390625 92.851562 480.679688 92.617188 480.988281 92.40625 C 481.300781 92.199219 481.628906 92.023438 481.976562 91.878906 C 482.320312 91.734375 482.679688 91.628906 483.046875 91.554688 C 483.414062 91.480469 483.78125 91.445312 484.15625 91.445312 C 484.53125 91.445312 484.902344 91.480469 485.269531 91.554688 C 485.636719 91.628906 485.992188 91.734375 486.339844 91.878906 C 486.683594 92.023438 487.011719 92.199219 487.324219 92.40625 C 487.636719 92.617188 487.925781 92.851562 488.1875 93.117188 C 488.453125 93.382812 488.691406 93.671875 488.898438 93.984375 C 489.105469 94.296875 489.28125 94.625 489.425781 94.972656 C 489.566406 95.316406 489.675781 95.675781 489.75 96.042969 C 489.824219 96.410156 489.859375 96.78125 489.859375 97.15625 C 489.859375 97.53125 489.824219 97.90625 489.75 98.273438 C 489.675781 98.640625 489.566406 98.996094 489.425781 99.34375 C 489.28125 99.691406 489.105469 100.019531 488.898438 100.332031 C 488.691406 100.644531 488.453125 100.933594 488.1875 101.199219 C 487.925781 101.464844 487.636719 101.699219 487.324219 101.910156 C 487.011719 102.117188 486.683594 102.292969 486.339844 102.4375 C 485.992188 102.578125 485.636719 102.6875 485.269531 102.761719 C 484.902344 102.835938 484.53125 102.871094 484.15625 102.871094 Z M 484.15625 102.871094 " fill-opacity="1" fill-rule="nonzero"/></g></svg>