<svg xmlns="http://www.w3.org/2000/svg" xmlns:xlink="http://www.w3.org/1999/xlink" width="448" zoomAndPan="magnify" viewBox="0 0 336 366.749986" height="489" preserveAspectRatio="xMidYMid meet" version="1.0"><defs><clipPath id="411cdb1705"><path d="M 0.113281 192 L 41 192 L 41 228 L 0.113281 228 Z M 0.113281 192 " clip-rule="nonzero"/></clipPath><clipPath id="3abd93be66"><path d="M 64 132 L 276.675781 132 L 276.675781 366.195312 L 64 366.195312 Z M 64 132 " clip-rule="nonzero"/></clipPath><clipPath id="cfca8f3fca"><path d="M 33 42.414062 L 259 42.414062 L 259 347 L 33 347 Z M 33 42.414062 " clip-rule="nonzero"/></clipPath><clipPath id="4a1c287a37"><path d="M 182 42.414062 L 259 42.414062 L 259 119 L 182 119 Z M 182 42.414062 " clip-rule="nonzero"/></clipPath><clipPath id="bb5d97c25e"><path d="M 0.113281 214 L 197 214 L 197 302 L 0.113281 302 Z M 0.113281 214 " clip-rule="nonzero"/></clipPath><clipPath id="04938f6c25"><path d="M 235.222656 0 L 335.652344 0 L 335.652344 84.691406 L 235.222656 84.691406 Z M 235.222656 0 " clip-rule="nonzero"/></clipPath></defs><g clip-path="url(#411cdb1705)"><path fill="#559b2d" d="M 12.617188 192.644531 C 5.796875 192.644531 0.113281 198.144531 0.113281 205.160156 L 0.113281 227.53125 L 40.273438 227.53125 L 33.832031 192.832031 L 33.832031 192.644531 Z M 12.617188 192.644531 " fill-opacity="1" fill-rule="evenodd"/></g><g clip-path="url(#3abd93be66)"><path fill="#dde2ef" d="M 258.492188 132.160156 L 276.675781 150.359375 L 276.675781 351.539062 C 276.675781 359.5 270.234375 366.136719 262.28125 366.136719 L 78.726562 366.136719 C 70.769531 366.136719 64.328125 359.5 64.328125 351.539062 L 64.328125 173.492188 Z M 258.492188 132.160156 " fill-opacity="1" fill-rule="evenodd"/></g><g clip-path="url(#cfca8f3fca)"><path fill="#eff2f9" d="M 33.832031 214.640625 L 33.832031 57.832031 C 33.832031 49.300781 40.652344 42.472656 49.175781 42.472656 L 182.53125 42.472656 L 258.492188 118.507812 L 258.492188 331.628906 C 258.492188 339.972656 251.671875 346.988281 243.148438 346.988281 L 49.175781 346.988281 C 40.652344 346.988281 33.832031 339.972656 33.832031 331.628906 Z M 33.832031 214.640625 " fill-opacity="1" fill-rule="evenodd"/></g><g clip-path="url(#4a1c287a37)"><path fill="#dde2ef" d="M 182.53125 42.472656 L 182.53125 103.148438 C 182.53125 111.679688 189.351562 118.507812 197.875 118.507812 L 258.492188 118.507812 Z M 182.53125 42.472656 " fill-opacity="1" fill-rule="evenodd"/></g><g clip-path="url(#bb5d97c25e)"><path fill="#7bdf45" d="M 0.113281 214.640625 L 189.351562 214.640625 C 193.328125 214.640625 196.738281 218.050781 196.738281 222.035156 L 196.738281 294.464844 C 196.738281 298.445312 193.328125 301.859375 189.351562 301.859375 L 7.503906 301.859375 C 3.523438 301.859375 0.113281 298.445312 0.113281 294.464844 Z M 0.113281 214.640625 " fill-opacity="1" fill-rule="evenodd"/></g><path fill="#7bdf45" d="M 65.84375 64.847656 L 141.046875 64.847656 L 141.046875 96.324219 L 65.84375 96.324219 Z M 65.84375 64.847656 " fill-opacity="1" fill-rule="evenodd"/><path fill="#7bdf45" d="M 69.824219 154.722656 C 68.117188 154.722656 66.601562 153.207031 66.601562 151.5 C 66.601562 149.792969 68.117188 148.277344 69.824219 148.277344 L 222.5 148.277344 C 224.394531 148.277344 225.71875 149.792969 225.71875 151.5 C 225.71875 153.207031 224.394531 154.722656 222.5 154.722656 Z M 69.824219 154.722656 " fill-opacity="1" fill-rule="evenodd"/><path fill="#7bdf45" d="M 69.824219 185.058594 C 68.117188 185.058594 66.601562 183.542969 66.601562 181.835938 C 66.601562 180.128906 68.117188 178.613281 69.824219 178.613281 L 222.5 178.613281 C 224.394531 178.613281 225.71875 180.128906 225.71875 181.835938 C 225.71875 183.542969 224.394531 185.058594 222.5 185.058594 Z M 69.824219 185.058594 " fill-opacity="1" fill-rule="evenodd"/><path fill="#ffffff" d="M 30.042969 236.253906 C 30.042969 234.359375 31.558594 233.03125 33.265625 233.03125 C 35.15625 233.03125 36.484375 234.359375 36.484375 236.253906 L 36.484375 275.3125 L 57.132812 275.3125 C 58.835938 275.3125 60.351562 276.832031 60.351562 278.539062 C 60.351562 280.433594 58.835938 281.761719 57.132812 281.761719 L 33.265625 281.761719 C 31.558594 281.761719 30.042969 280.433594 30.042969 278.539062 Z M 30.042969 236.253906 " fill-opacity="1" fill-rule="nonzero"/><path fill="#ffffff" d="M 90.847656 233.980469 C 97.101562 233.980469 102.78125 236.445312 106.761719 240.617188 L 106.949219 240.617188 C 110.929688 244.785156 113.582031 250.476562 113.582031 256.734375 L 113.582031 259.957031 C 113.582031 266.214844 110.929688 271.902344 106.761719 275.882812 C 106.761719 276.074219 106.761719 276.074219 106.570312 276.074219 C 102.59375 280.246094 96.910156 282.710938 90.847656 282.710938 C 84.597656 282.710938 78.914062 280.054688 74.75 275.882812 C 70.582031 271.902344 67.929688 266.214844 67.929688 259.957031 L 67.929688 256.734375 C 67.929688 250.476562 70.582031 244.785156 74.75 240.617188 C 78.914062 236.445312 84.597656 233.980469 90.847656 233.980469 Z M 102.214844 245.167969 C 99.375 242.132812 95.207031 240.425781 90.847656 240.425781 C 86.304688 240.425781 82.136719 242.132812 79.292969 245.167969 C 76.261719 248.011719 74.371094 252.183594 74.371094 256.734375 L 74.371094 259.957031 C 74.371094 264.316406 76.261719 268.488281 79.292969 271.332031 C 82.136719 274.367188 86.304688 276.261719 90.847656 276.261719 C 95.207031 276.261719 99.183594 274.367188 102.214844 271.523438 C 102.214844 271.523438 102.214844 271.523438 102.214844 271.332031 C 105.246094 268.488281 107.140625 264.316406 107.140625 259.957031 L 107.140625 256.734375 C 107.140625 252.183594 105.246094 248.011719 102.214844 245.167969 Z M 102.214844 245.167969 " fill-opacity="1" fill-rule="nonzero"/><path fill="#ffffff" d="M 163.96875 246.492188 C 164.914062 248.011719 164.347656 249.90625 162.640625 250.855469 C 161.125 251.613281 159.230469 251.042969 158.285156 249.527344 C 156.957031 247.0625 154.875 244.785156 152.414062 243.460938 C 150.140625 241.941406 147.296875 241.183594 144.265625 241.183594 C 139.910156 241.183594 135.933594 243.082031 133.089844 245.925781 C 130.058594 248.769531 128.355469 252.75 128.355469 257.300781 L 128.355469 261.09375 C 128.355469 265.453125 130.058594 269.4375 133.089844 272.28125 C 135.933594 275.3125 139.910156 277.019531 144.265625 277.019531 C 148.8125 277.019531 152.792969 275.3125 155.632812 272.28125 C 155.632812 272.28125 155.824219 272.28125 155.824219 272.28125 C 157.90625 270.003906 159.421875 267.351562 159.988281 264.316406 L 146.917969 264.316406 C 145.214844 264.316406 143.699219 262.800781 143.699219 261.09375 C 143.699219 259.199219 145.214844 257.871094 146.917969 257.871094 L 163.589844 257.871094 C 165.292969 257.871094 166.808594 259.199219 166.808594 261.09375 C 166.808594 267.160156 164.347656 272.660156 160.367188 276.640625 C 160.367188 276.832031 160.179688 276.832031 160.179688 276.832031 C 156.203125 281.003906 150.519531 283.46875 144.265625 283.46875 C 138.207031 283.46875 132.523438 281.003906 128.546875 276.832031 C 124.378906 272.847656 121.914062 267.160156 121.914062 261.09375 L 121.914062 257.300781 C 121.914062 251.042969 124.378906 245.355469 128.546875 241.375 C 132.523438 237.203125 138.207031 234.738281 144.265625 234.738281 C 148.433594 234.738281 152.414062 235.875 155.632812 237.960938 C 159.230469 239.855469 162.074219 242.890625 163.96875 246.492188 Z M 163.96875 246.492188 " fill-opacity="1" fill-rule="nonzero"/><g clip-path="url(#04938f6c25)"><path fill="#000000" d="M 333.402344 59.722656 L 332.117188 59.722656 C 331.742188 58.371094 331.203125 57.074219 330.507812 55.851562 L 331.417969 54.945312 C 332.269531 54.09375 332.269531 52.710938 331.417969 51.859375 L 328.746094 49.195312 L 328.746094 6.269531 C 328.746094 2.808594 325.925781 -0.0078125 322.457031 -0.0078125 L 241.574219 -0.0078125 C 238.109375 -0.0078125 235.289062 2.808594 235.289062 6.269531 L 235.289062 62.914062 C 235.289062 66.375 238.109375 69.1875 241.574219 69.1875 L 262.261719 69.1875 L 257.882812 76.6875 C 257.460938 77.410156 257.457031 78.265625 257.871094 78.984375 C 258.28125 79.703125 259.050781 80.148438 259.875 80.148438 L 302.332031 80.148438 L 302.699219 80.515625 C 303.554688 81.367188 304.941406 81.367188 305.792969 80.515625 L 306.699219 79.609375 C 307.925781 80.304688 309.226562 80.839844 310.582031 81.21875 L 310.582031 82.496094 C 310.582031 83.699219 311.5625 84.679688 312.769531 84.679688 L 317.796875 84.679688 C 319 84.679688 319.980469 83.699219 319.980469 82.496094 L 319.980469 81.21875 C 321.335938 80.839844 322.636719 80.304688 323.863281 79.609375 L 324.769531 80.515625 C 325.625 81.367188 327.011719 81.367188 327.863281 80.515625 L 331.417969 76.96875 C 332.269531 76.121094 332.269531 74.734375 331.417969 73.886719 L 330.507812 72.980469 C 331.203125 71.753906 331.742188 70.457031 332.117188 69.105469 L 333.402344 69.105469 C 334.605469 69.105469 335.585938 68.125 335.585938 66.921875 L 335.585938 61.90625 C 335.585938 60.703125 334.605469 59.722656 333.402344 59.722656 Z M 241.574219 3.132812 L 322.457031 3.132812 C 324.191406 3.132812 325.601562 4.539062 325.601562 6.269531 L 325.601562 47.796875 C 325.296875 47.902344 325.011719 48.070312 324.769531 48.3125 L 323.863281 49.21875 C 322.636719 48.523438 321.335938 47.988281 319.980469 47.613281 L 319.980469 46.332031 C 319.980469 45.128906 319 44.148438 317.796875 44.148438 L 312.769531 44.148438 C 311.5625 44.148438 310.582031 45.128906 310.582031 46.332031 L 310.582031 47.613281 C 309.226562 47.988281 307.925781 48.523438 306.699219 49.21875 L 305.792969 48.3125 C 304.941406 47.460938 303.554688 47.460938 302.699219 48.3125 L 299.148438 51.859375 C 298.734375 52.269531 298.507812 52.816406 298.507812 53.402344 C 298.507812 53.984375 298.734375 54.53125 299.148438 54.945312 L 300.054688 55.851562 C 299.632812 56.597656 299.265625 57.371094 298.960938 58.167969 L 238.433594 58.167969 L 238.433594 6.269531 C 238.433594 4.539062 239.84375 3.132812 241.574219 3.132812 Z M 238.433594 62.914062 L 238.433594 61.308594 L 295.0625 61.308594 C 295.007812 61.5 294.976562 61.699219 294.976562 61.90625 L 294.976562 66.046875 L 241.574219 66.046875 C 239.84375 66.046875 238.433594 64.640625 238.433594 62.914062 Z M 261.339844 77.007812 L 265.902344 69.1875 L 298.46875 69.1875 C 298.847656 70.511719 299.375 71.78125 300.054688 72.980469 L 299.148438 73.886719 C 298.292969 74.734375 298.292969 76.121094 299.148438 76.96875 L 299.183594 77.007812 Z M 332.441406 65.964844 L 330.875 65.964844 C 330.125 65.964844 329.480469 66.492188 329.332031 67.226562 C 328.96875 69.058594 328.253906 70.78125 327.210938 72.339844 C 326.792969 72.964844 326.875 73.792969 327.40625 74.324219 L 328.511719 75.425781 L 326.316406 77.617188 L 325.210938 76.515625 C 324.679688 75.984375 323.847656 75.902344 323.222656 76.320312 C 321.660156 77.359375 319.9375 78.074219 318.097656 78.4375 C 317.363281 78.585938 316.832031 79.230469 316.832031 79.976562 L 316.832031 81.539062 L 313.730469 81.539062 L 313.730469 79.976562 C 313.730469 79.230469 313.199219 78.585938 312.460938 78.4375 C 310.625 78.074219 308.902344 77.359375 307.339844 76.316406 C 306.714844 75.902344 305.882812 75.984375 305.351562 76.515625 L 304.246094 77.617188 L 302.050781 75.425781 L 303.15625 74.324219 C 303.6875 73.792969 303.769531 72.964844 303.351562 72.339844 C 302.308594 70.78125 301.59375 69.0625 301.230469 67.226562 C 301.082031 66.492188 300.4375 65.964844 299.6875 65.964844 L 298.121094 65.964844 L 298.121094 62.863281 L 299.6875 62.863281 C 300.4375 62.863281 301.082031 62.335938 301.230469 61.601562 C 301.59375 59.769531 302.308594 58.046875 303.351562 56.488281 C 303.769531 55.863281 303.6875 55.035156 303.15625 54.503906 L 302.050781 53.402344 L 304.246094 51.210938 L 305.351562 52.3125 C 305.882812 52.84375 306.714844 52.925781 307.339844 52.511719 C 308.902344 51.46875 310.625 50.757812 312.464844 50.390625 C 313.199219 50.242188 313.730469 49.597656 313.730469 48.851562 L 313.730469 47.289062 L 316.832031 47.289062 L 316.832031 48.851562 C 316.832031 49.597656 317.363281 50.242188 318.097656 50.390625 C 319.9375 50.753906 321.660156 51.46875 323.222656 52.511719 C 323.847656 52.925781 324.679688 52.84375 325.210938 52.3125 L 326.316406 51.210938 L 328.511719 53.402344 L 327.40625 54.503906 C 326.875 55.035156 326.792969 55.863281 327.210938 56.488281 C 328.25 58.046875 328.964844 59.765625 329.332031 61.601562 C 329.480469 62.335938 330.125 62.863281 330.875 62.863281 L 332.441406 62.863281 Z M 315.28125 52.625 C 308.769531 52.625 303.46875 57.914062 303.46875 64.414062 C 303.46875 70.914062 308.769531 76.203125 315.28125 76.203125 C 321.792969 76.203125 327.09375 70.914062 327.09375 64.414062 C 327.09375 57.914062 321.792969 52.625 315.28125 52.625 Z M 315.28125 73.0625 C 310.503906 73.0625 306.617188 69.183594 306.617188 64.414062 C 306.617188 59.644531 310.503906 55.765625 315.28125 55.765625 C 320.058594 55.765625 323.945312 59.644531 323.945312 64.414062 C 323.945312 69.183594 320.058594 73.0625 315.28125 73.0625 Z M 251.425781 25.542969 L 253.804688 25.542969 L 253.804688 52.15625 C 253.804688 53.023438 254.511719 53.726562 255.378906 53.726562 C 256.246094 53.726562 256.953125 53.023438 256.953125 52.15625 L 256.953125 25.542969 L 259.332031 25.542969 C 260.199219 25.542969 260.90625 24.839844 260.90625 23.972656 L 260.90625 16.082031 C 260.90625 15.214844 260.199219 14.511719 259.332031 14.511719 L 256.953125 14.511719 L 256.953125 9.144531 C 256.953125 8.277344 256.246094 7.574219 255.378906 7.574219 C 254.511719 7.574219 253.804688 8.277344 253.804688 9.144531 L 253.804688 14.511719 L 251.425781 14.511719 C 250.558594 14.511719 249.851562 15.214844 249.851562 16.082031 L 249.851562 23.972656 C 249.851562 24.839844 250.558594 25.542969 251.425781 25.542969 Z M 253 17.652344 L 257.757812 17.652344 L 257.757812 22.402344 L 253 22.402344 Z M 292.527344 43.996094 L 294.910156 43.996094 L 294.910156 52.15625 C 294.910156 53.023438 295.613281 53.726562 296.480469 53.726562 C 297.351562 53.726562 298.054688 53.023438 298.054688 52.15625 L 298.054688 43.996094 L 300.433594 43.996094 C 301.304688 43.996094 302.007812 43.292969 302.007812 42.425781 L 302.007812 34.535156 C 302.007812 33.667969 301.304688 32.964844 300.433594 32.964844 L 298.054688 32.964844 L 298.054688 9.144531 C 298.054688 8.277344 297.351562 7.574219 296.480469 7.574219 C 295.613281 7.574219 294.910156 8.277344 294.910156 9.144531 L 294.910156 32.964844 L 292.527344 32.964844 C 291.660156 32.964844 290.957031 33.667969 290.957031 34.535156 L 290.957031 42.425781 C 290.957031 43.292969 291.660156 43.996094 292.527344 43.996094 Z M 294.101562 36.105469 L 298.859375 36.105469 L 298.859375 40.855469 L 294.101562 40.855469 Z M 278.828125 25.542969 L 281.207031 25.542969 L 281.207031 52.15625 C 281.207031 53.023438 281.910156 53.726562 282.78125 53.726562 C 283.648438 53.726562 284.355469 53.023438 284.355469 52.15625 L 284.355469 25.542969 L 286.734375 25.542969 C 287.601562 25.542969 288.304688 24.839844 288.304688 23.972656 L 288.304688 16.082031 C 288.304688 15.214844 287.601562 14.511719 286.734375 14.511719 L 284.355469 14.511719 L 284.355469 9.144531 C 284.355469 8.277344 283.648438 7.574219 282.78125 7.574219 C 281.910156 7.574219 281.207031 8.277344 281.207031 9.144531 L 281.207031 14.511719 L 278.828125 14.511719 C 277.960938 14.511719 277.253906 15.214844 277.253906 16.082031 L 277.253906 23.972656 C 277.253906 24.839844 277.960938 25.542969 278.828125 25.542969 Z M 280.402344 17.652344 L 285.160156 17.652344 L 285.160156 22.402344 L 280.402344 22.402344 Z M 265.128906 43.996094 L 267.507812 43.996094 L 267.507812 52.15625 C 267.507812 53.023438 268.210938 53.726562 269.078125 53.726562 C 269.949219 53.726562 270.652344 53.023438 270.652344 52.15625 L 270.652344 43.996094 L 273.03125 43.996094 C 273.902344 43.996094 274.605469 43.292969 274.605469 42.425781 L 274.605469 34.535156 C 274.605469 33.667969 273.902344 32.964844 273.03125 32.964844 L 270.652344 32.964844 L 270.652344 9.144531 C 270.652344 8.277344 269.949219 7.574219 269.078125 7.574219 C 268.210938 7.574219 267.507812 8.277344 267.507812 9.144531 L 267.507812 32.964844 L 265.128906 32.964844 C 264.257812 32.964844 263.554688 33.667969 263.554688 34.535156 L 263.554688 42.425781 C 263.554688 43.292969 264.257812 43.996094 265.128906 43.996094 Z M 266.699219 36.105469 L 271.457031 36.105469 L 271.457031 40.855469 L 266.699219 40.855469 Z M 315.65625 16.753906 C 315.65625 15.886719 316.363281 15.183594 317.230469 15.183594 L 322.042969 15.183594 C 322.910156 15.183594 323.617188 15.886719 323.617188 16.753906 C 323.617188 17.621094 322.910156 18.324219 322.042969 18.324219 L 317.230469 18.324219 C 316.363281 18.324219 315.65625 17.621094 315.65625 16.753906 Z M 315.65625 10.558594 C 315.65625 9.691406 316.363281 8.988281 317.230469 8.988281 L 322.042969 8.988281 C 322.910156 8.988281 323.617188 9.691406 323.617188 10.558594 C 323.617188 11.425781 322.910156 12.128906 322.042969 12.128906 L 317.230469 12.128906 C 316.363281 12.128906 315.65625 11.425781 315.65625 10.558594 Z M 315.65625 33.242188 C 315.65625 32.378906 316.363281 31.675781 317.230469 31.675781 L 322.042969 31.675781 C 322.910156 31.675781 323.617188 32.378906 323.617188 33.242188 C 323.617188 34.109375 322.910156 34.8125 322.042969 34.8125 L 317.230469 34.8125 C 316.363281 34.8125 315.65625 34.109375 315.65625 33.242188 Z M 315.65625 27.050781 C 315.65625 26.183594 316.363281 25.480469 317.230469 25.480469 L 322.042969 25.480469 C 322.910156 25.480469 323.617188 26.183594 323.617188 27.050781 C 323.617188 27.917969 322.910156 28.621094 322.042969 28.621094 L 317.230469 28.621094 C 316.363281 28.621094 315.65625 27.917969 315.65625 27.050781 Z M 315.65625 39.4375 C 315.65625 38.570312 316.363281 37.867188 317.230469 37.867188 L 322.042969 37.867188 C 322.910156 37.867188 323.617188 38.570312 323.617188 39.4375 C 323.617188 40.304688 322.910156 41.007812 322.042969 41.007812 L 317.230469 41.007812 C 316.363281 41.007812 315.65625 40.304688 315.65625 39.4375 Z M 240.765625 39.4375 C 240.765625 38.570312 241.472656 37.867188 242.339844 37.867188 L 247.152344 37.867188 C 248.023438 37.867188 248.726562 38.570312 248.726562 39.4375 C 248.726562 40.304688 248.023438 41.007812 247.152344 41.007812 L 242.339844 41.007812 C 241.472656 41.007812 240.765625 40.304688 240.765625 39.4375 Z M 240.765625 45.632812 C 240.765625 44.765625 241.472656 44.0625 242.339844 44.0625 L 247.152344 44.0625 C 248.023438 44.0625 248.726562 44.765625 248.726562 45.632812 C 248.726562 46.5 248.023438 47.203125 247.152344 47.203125 L 242.339844 47.203125 C 241.472656 47.203125 240.765625 46.5 240.765625 45.632812 Z M 240.765625 10.558594 C 240.765625 9.691406 241.472656 8.988281 242.339844 8.988281 L 247.152344 8.988281 C 248.023438 8.988281 248.726562 9.691406 248.726562 10.558594 C 248.726562 11.425781 248.023438 12.128906 247.152344 12.128906 L 242.339844 12.128906 C 241.472656 12.128906 240.765625 11.425781 240.765625 10.558594 Z M 240.765625 33.242188 C 240.765625 32.378906 241.472656 31.675781 242.339844 31.675781 L 247.152344 31.675781 C 248.023438 31.675781 248.726562 32.378906 248.726562 33.242188 C 248.726562 34.109375 248.023438 34.8125 247.152344 34.8125 L 242.339844 34.8125 C 241.472656 34.8125 240.765625 34.109375 240.765625 33.242188 Z M 240.765625 27.050781 C 240.765625 26.183594 241.472656 25.480469 242.339844 25.480469 L 247.152344 25.480469 C 248.023438 25.480469 248.726562 26.183594 248.726562 27.050781 C 248.726562 27.917969 248.023438 28.621094 247.152344 28.621094 L 242.339844 28.621094 C 241.472656 28.621094 240.765625 27.917969 240.765625 27.050781 Z M 240.765625 16.753906 C 240.765625 15.886719 241.472656 15.183594 242.339844 15.183594 L 247.152344 15.183594 C 248.023438 15.183594 248.726562 15.886719 248.726562 16.753906 C 248.726562 17.621094 248.023438 18.324219 247.152344 18.324219 L 242.339844 18.324219 C 241.472656 18.324219 240.765625 17.621094 240.765625 16.753906 Z M 240.765625 16.753906 " fill-opacity="1" fill-rule="nonzero"/></g></svg>